<?xml version="1.0" encoding="UTF-8" standalone="no"?>
<svg
   xmlns:dc="http://purl.org/dc/elements/1.1/"
   xmlns:cc="http://creativecommons.org/ns#"
   xmlns:rdf="http://www.w3.org/1999/02/22-rdf-syntax-ns#"
   xmlns:svg="http://www.w3.org/2000/svg"
   xmlns="http://www.w3.org/2000/svg"
   xmlns:sodipodi="http://sodipodi.sourceforge.net/DTD/sodipodi-0.dtd"
   xmlns:inkscape="http://www.inkscape.org/namespaces/inkscape"
   version="1.1"
   x="0"
   y="0"
   width="1200"
   height="300"
   viewBox="0, 0, 1200, 300"
   id="svg2"
   inkscape:version="0.92.2 5c3e80d, 2017-08-06"
   sodipodi:docname="header_kjemi.svg">
  <metadata
     id="metadata129">
    <rdf:RDF>
      <cc:Work
         rdf:about="">
        <dc:format>image/svg+xml</dc:format>
        <dc:type
           rdf:resource="http://purl.org/dc/dcmitype/StillImage" />
      </cc:Work>
    </rdf:RDF>
  </metadata>
  <defs
     id="defs127">
    <marker
       inkscape:stockid="Arrow1Lend"
       orient="auto"
       refY="0.0"
       refX="0.0"
       id="Arrow1Lend"
       style="overflow:visible;"
       inkscape:isstock="true">
      <path
         id="path4266"
         d="M 0.0,0.0 L 5.0,-5.0 L -12.5,0.0 L 5.0,5.0 L 0.0,0.0 z "
         style="fill-rule:evenodd;stroke:#000000;stroke-width:1pt;stroke-opacity:1;fill:#000000;fill-opacity:1"
         transform="scale(0.8) rotate(180) translate(12.5,0)" />
    </marker>
  </defs>
  <sodipodi:namedview
     pagecolor="#ffffff"
     bordercolor="#666666"
     borderopacity="1"
     objecttolerance="10"
     gridtolerance="10"
     guidetolerance="10"
     inkscape:pageopacity="0"
     inkscape:pageshadow="2"
     inkscape:window-width="1420"
     inkscape:window-height="791"
     id="namedview125"
     showgrid="false"
     inkscape:zoom="0.70737049"
     inkscape:cx="617.46609"
     inkscape:cy="183.019"
     inkscape:window-x="28"
     inkscape:window-y="1"
     inkscape:window-maximized="0"
     inkscape:current-layer="Layer_1" />
  <g
     id="Layer_1">
    <g
       id="g5"
       transform="translate(33.928472,-108.85385)">
      <path
         d="m 838.896,32.713 h 5.918 v 11.798 l 11.239,-11.798 h 7.399 l -11.479,11.638 12.518,17.117 h -7.239 l -9.358,-13.157 -3.08,3.039 v 10.118 h -5.918 V 32.713"
         id="path7"
         inkscape:connector-curvature="0"
         style="fill:#000000" />
      <path
         d="m 866.835,32.753 h 5.679 v 5.119 h -5.679 z m -2.48,32.635 h 1.12 c 0.96,0 1.36,-0.441 1.36,-1.44 V 40.232 h 5.679 v 24.636 c 0,4.04 -2.24,5.278 -7.079,5.278 h -1.08 v -4.758"
         id="path9"
         inkscape:connector-curvature="0"
         style="fill:#000000" />
      <path
         d="m 890.356,48.631 c -0.079,-2.88 -1.559,-4.4 -4.199,-4.4 -2.439,0 -3.919,1.52 -4.159,4.4 z m 5.6,6.399 c -1.16,4.439 -4.8,7.158 -9.839,7.158 -6.039,0 -9.998,-4.319 -9.998,-11.478 0,-6.958 3.799,-11.238 9.918,-11.238 6.479,0 10.199,4.079 10.199,11.398 0,0.48 0,0.96 -0.04,1.48 h -14.198 c 0.16,3.32 1.64,5.039 4.399,5.039 1.92,0 3.16,-0.72 3.88,-2.359 h 5.679"
         id="path11"
         inkscape:connector-curvature="0"
         style="fill:#000000" />
      <path
         d="m 899.791,40.232 h 5.399 v 2.36 c 1.56,-1.96 3.519,-2.96 5.879,-2.96 2.679,0 4.519,0.96 5.919,3.12 1.479,-2.04 3.519,-3.12 6.039,-3.12 4.239,0 6.958,2.64 6.958,6.999 v 14.837 h -5.598 V 47.791 c 0,-2.08 -1.2,-3.24 -3.16,-3.24 -2.16,0 -3.6,1.52 -3.6,4.04 v 12.877 h -5.559 V 47.831 c 0,-2.12 -1.159,-3.28 -3.079,-3.28 -2.159,0 -3.599,1.52 -3.599,4.08 v 12.837 h -5.599 V 40.232"
         id="path13"
         inkscape:connector-curvature="0"
         style="fill:#000000" />
      <path
         d="m 934.623,40.232 h 5.679 v 21.236 h -5.679 z m 0,-7.519 h 5.679 v 5.159 h -5.679 z"
         id="path15"
         inkscape:connector-curvature="0"
         style="fill:#000000" />
      <path
         d="m 949.461,54.55 c 0.081,2.159 1.52,3.199 4.439,3.199 2.28,0 3.48,-0.8 3.48,-2.119 0,-1.84 -1.84,-1.72 -5.599,-2.68 -4.999,-1.28 -7.359,-2.799 -7.359,-6.399 0,-4.279 3.28,-7.079 8.719,-7.079 5.719,0 9.078,2.68 9.278,7.239 H 956.9 c -0.08,-1.8 -1.4,-2.84 -3.719,-2.84 -2.16,0 -3.2,0.64 -3.2,1.96 0,1.48 1.76,1.64 5.799,2.6 4.919,1.16 7.319,2.519 7.319,6.359 0,4.799 -3.439,7.398 -9.958,7.398 -5.919,0 -9.359,-2.839 -9.359,-7.398 0,-0.08 0,-0.16 0,-0.24 h 5.679"
         id="path17"
         inkscape:connector-curvature="0"
         style="fill:#000000" />
      <path
         d="m 966.626,32.713 h 5.519 v 15.078 l 6.759,-7.559 h 6.839 l -7.399,7.879 7.839,13.357 h -6.8 l -5.078,-9.038 -2.16,2.32 v 6.718 h -5.519 V 32.713"
         id="path19"
         inkscape:connector-curvature="0"
         style="fill:#000000" />
      <path
         d="m 1000.145,40.232 h 5.679 v 21.236 h -5.679 z m 0,-7.519 h 5.679 v 5.159 h -5.679 z"
         id="path21"
         inkscape:connector-curvature="0"
         style="fill:#000000" />
      <path
         d="m 1010.42,40.232 h 5.56 v 2.52 c 1.6,-2.04 3.759,-3.08 6.438,-3.08 4.68,0 6.999,2.44 6.999,7.319 v 14.477 h -5.679 V 48.631 c 0,-2.88 -0.84,-4.24 -3.279,-4.24 -2.64,0 -4.36,1.68 -4.36,4.48 v 12.597 h -5.679 V 40.232"
         id="path23"
         inkscape:connector-curvature="0"
         style="fill:#000000" />
      <path
         d="m 1038.479,54.55 c 0.08,2.159 1.52,3.199 4.439,3.199 2.28,0 3.48,-0.8 3.48,-2.119 0,-1.84 -1.84,-1.72 -5.6,-2.68 -4.999,-1.28 -7.358,-2.799 -7.358,-6.399 0,-4.279 3.279,-7.079 8.719,-7.079 5.718,0 9.078,2.68 9.278,7.239 h -5.52 c -0.08,-1.8 -1.399,-2.84 -3.719,-2.84 -2.159,0 -3.199,0.64 -3.199,1.96 0,1.48 1.759,1.64 5.798,2.6 4.92,1.16 7.32,2.519 7.32,6.359 0,4.799 -3.44,7.398 -9.958,7.398 -5.92,0 -9.36,-2.839 -9.36,-7.398 0,-0.08 0,-0.16 0,-0.24 h 5.68"
         id="path25"
         inkscape:connector-curvature="0"
         style="fill:#000000" />
      <path
         d="m 1061.882,61.748 c -4.679,0 -5.679,-1.599 -5.679,-6.039 V 44.231 h -2.799 v -3.999 h 2.799 v -5.799 h 5.639 v 5.799 h 3.28 v 3.999 h -3.28 v 11.758 c 0,1.12 0.36,1.36 1.88,1.36 h 1.4 v 4.28 c -1.56,0.04 -2.64,0.119 -3.24,0.119"
         id="path27"
         inkscape:connector-curvature="0"
         style="fill:#000000" />
      <path
         d="m 1068.459,40.232 h 5.679 v 21.236 h -5.679 z m 0,-7.519 h 5.679 v 5.159 h -5.679 z"
         id="path29"
         inkscape:connector-curvature="0"
         style="fill:#000000" />
      <path
         d="m 1085.198,61.748 c -4.68,0 -5.68,-1.599 -5.68,-6.039 V 44.231 h -2.799 v -3.999 h 2.799 v -5.799 h 5.64 v 5.799 h 3.279 v 3.999 h -3.279 v 11.758 c 0,1.12 0.359,1.36 1.88,1.36 h 1.399 v 4.28 c -1.56,0.04 -2.64,0.119 -3.239,0.119"
         id="path31"
         inkscape:connector-curvature="0"
         style="fill:#000000" />
      <path
         d="m 1110.335,61.468 h -5.559 v -2.519 c -1.6,2.04 -3.759,3.08 -6.439,3.08 -4.679,0 -6.999,-2.44 -6.999,-7.319 V 40.232 h 5.68 V 53.07 c 0,2.879 0.84,4.199 3.279,4.199 2.64,0 4.36,-1.679 4.36,-4.479 V 40.232 h 5.678 v 21.236"
         id="path33"
         inkscape:connector-curvature="0"
         style="fill:#000000" />
      <path
         d="m 1121.401,61.748 c -4.68,0 -5.68,-1.599 -5.68,-6.039 V 44.231 h -2.799 v -3.999 h 2.799 v -5.799 h 5.64 v 5.799 h 3.279 v 3.999 h -3.279 v 11.758 c 0,1.12 0.359,1.36 1.88,1.36 h 1.399 v 4.28 c -1.559,0.04 -2.64,0.119 -3.239,0.119"
         id="path35"
         inkscape:connector-curvature="0"
         style="fill:#000000" />
      <path
         d="m 1134.701,61.748 c -4.68,0 -5.68,-1.599 -5.68,-6.039 V 44.231 h -2.799 v -3.999 h 2.799 v -5.799 h 5.64 v 5.799 h 3.279 v 3.999 h -3.279 v 11.758 c 0,1.12 0.359,1.36 1.88,1.36 h 1.399 v 4.28 c -1.56,0.04 -2.64,0.119 -3.239,0.119"
         id="path37"
         inkscape:connector-curvature="0"
         style="fill:#000000" />
      <path
         d="m 752.289,51.168 c 0,1.977 -0.233,3.651 -0.699,5.023 -0.469,1.374 -1.181,2.485 -2.142,3.336 -0.96,0.853 -2.16,1.467 -3.603,1.852 -1.439,0.383 -3.149,0.574 -5.123,0.574 -1.677,0 -3.207,-0.182 -4.592,-0.552 -1.388,-0.371 -2.575,-0.969 -3.563,-1.792 -0.988,-0.823 -1.756,-1.893 -2.304,-3.208 -0.55,-1.322 -0.825,-2.942 -0.825,-4.861 V 34.495 l -3.292,-0.617 v -1.237 h 10.209 v 1.237 l -3.293,0.617 v 18.403 c 0,2.277 0.713,4.069 2.14,5.375 1.428,1.301 3.527,1.954 6.3,1.954 2.91,0 5.015,-0.675 6.319,-2.021 1.304,-1.342 1.956,-3.467 1.956,-6.378 V 34.495 l -3.293,-0.617 v -1.237 h 9.098 v 1.237 l -3.293,0.617 v 16.673"
         id="path39"
         inkscape:connector-curvature="0"
         style="fill:#000000" />
      <path
         d="m 764.695,43.756 v 15.853 l 3.293,0.618 v 1.235 h -9.758 v -1.235 l 3.294,-0.618 V 43.346 l -3.294,-1.234 v -0.701 l 6.465,-1.03 0.164,0.085 -0.164,3.29"
         id="path41"
         inkscape:connector-curvature="0"
         style="fill:#000000" />
      <path
         d="m 792.343,37.129 c -1.648,-2.168 -3.967,-3.251 -6.958,-3.251 -3.048,0 -5.392,1.048 -7.041,3.147 -1.648,2.102 -2.469,5.401 -2.469,9.903 0,4.556 0.808,7.913 2.428,10.065 1.62,2.157 3.951,3.234 7,3.234 3.047,0 5.392,-1.055 7.04,-3.171 1.646,-2.113 2.47,-5.406 2.47,-9.881 0,-4.529 -0.824,-7.878 -2.47,-10.046 z m 2.964,21 c -2.389,2.55 -5.778,3.824 -10.169,3.824 -4.2,0 -7.475,-1.239 -9.821,-3.723 -2.346,-2.484 -3.519,-6.127 -3.519,-10.931 0,-2.498 0.321,-4.694 0.968,-6.588 0.644,-1.893 1.556,-3.472 2.738,-4.735 1.179,-1.265 2.614,-2.215 4.302,-2.86 1.688,-0.645 3.575,-0.969 5.66,-0.969 2.088,0 3.959,0.317 5.62,0.946 1.66,0.633 3.068,1.571 4.221,2.822 1.151,1.25 2.038,2.792 2.656,4.631 0.617,1.84 0.925,3.969 0.925,6.382 0,4.912 -1.193,8.648 -3.581,11.201"
         id="path43"
         inkscape:connector-curvature="0"
         style="fill:#000000" />
      <path
         d="m 761.09,34.325 c 0,0.602 0.199,1.104 0.597,1.501 0.397,0.399 0.899,0.597 1.501,0.597 0.605,0 1.114,-0.198 1.525,-0.597 0.412,-0.397 0.618,-0.899 0.618,-1.501 0,-0.603 -0.206,-1.113 -0.618,-1.525 -0.411,-0.414 -0.92,-0.616 -1.525,-0.616 -0.602,0 -1.104,0.202 -1.501,0.616 -0.398,0.412 -0.597,0.922 -0.597,1.525"
         id="path45"
         inkscape:connector-curvature="0"
         style="fill:#000000" />
      <path
         d="m 824.432,37.6 c 0.097,0.459 0.153,0.948 0.153,1.437 0,3.662 -2.97,6.624 -6.624,6.624 -3.658,0 -6.627,-2.962 -6.627,-6.624 0,-3.662 2.969,-6.63 6.627,-6.63 3.165,0 5.807,2.222 6.471,5.193"
         id="path47"
         inkscape:connector-curvature="0"
         style="fill:#d8232a" />
      <path
         d="m 824.432,53.815 c 0.097,0.461 0.153,0.946 0.153,1.439 0,3.661 -2.97,6.632 -6.624,6.632 -3.658,0 -6.627,-2.971 -6.627,-6.632 0,-3.661 2.969,-6.625 6.627,-6.625 3.165,0 5.807,2.219 6.471,5.186"
         id="path49"
         inkscape:connector-curvature="0"
         style="fill:#d8232a" />
    </g>
    <path
       d="M345.268,186.023 C345.255,185.832 345.261,185.799 345.255,185.664 C345.247,185.497 345.194,185.434 345.027,185.328 C344.962,185.286 344.888,185.252 344.811,185.217 C344.689,185.162 344.55,185.12 344.395,185.092 C344.111,185.041 343.844,185.044 343.597,185.1 C343.348,185.156 343.125,185.268 342.925,185.436 C342.727,185.603 342.556,185.826 342.414,186.106 C342.272,186.385 342.165,186.719 342.095,187.108 C341.945,187.933 342.004,188.576 342.272,189.037 C342.539,189.498 343.002,189.789 343.661,189.908 C343.854,189.943 344.063,189.957 344.289,189.948 C344.481,189.94 344.703,189.914 344.957,189.883 C345.088,189.866 345.101,189.963 345.101,189.963 L345.115,190.066 C345.115,190.066 345.128,190.186 345.028,190.223 C344.806,190.307 344.553,190.367 344.268,190.406 C343.939,190.451 343.579,190.438 343.187,190.367 C342.813,190.299 342.471,190.184 342.163,190.024 C341.854,189.863 341.6,189.649 341.4,189.382 C341.199,189.115 341.062,188.791 340.987,188.408 C340.913,188.026 340.922,187.58 341.015,187.068 C341.108,186.552 341.266,186.122 341.486,185.776 C341.706,185.431 341.973,185.163 342.284,184.968 C342.596,184.775 342.946,184.653 343.334,184.602 C343.722,184.552 344.133,184.566 344.567,184.645 C344.861,184.699 345.132,184.776 345.379,184.879 C345.551,184.951 345.713,185.023 345.865,185.098 C346.076,185.202 346.021,185.381 346.021,185.381 L345.795,186.128 C345.795,186.128 345.741,186.292 345.596,186.267 C345.468,186.245 345.391,186.229 345.391,186.229 C345.391,186.229 345.28,186.214 345.268,186.023"
       fill="#FFFFFE"
       id="path51" />
    <path
       d="M353.935,186.217 C353.877,186.035 353.876,186.001 353.838,185.871 C353.79,185.712 353.724,185.664 353.537,185.599 C353.464,185.574 353.384,185.557 353.301,185.542 C353.169,185.517 353.024,185.51 352.867,185.519 C352.578,185.536 352.32,185.602 352.093,185.717 C351.865,185.83 351.675,185.992 351.521,186.201 C351.366,186.411 351.254,186.668 351.182,186.973 C351.11,187.279 351.086,187.628 351.109,188.022 C351.159,188.859 351.369,189.47 351.738,189.855 C352.106,190.239 352.625,190.412 353.294,190.372 C353.49,190.36 353.696,190.324 353.913,190.262 C354.099,190.21 354.308,190.131 354.546,190.04 C354.67,189.993 354.706,190.084 354.706,190.084 L354.744,190.181 C354.744,190.181 354.785,190.295 354.697,190.355 C354.501,190.489 354.269,190.607 354.001,190.713 C353.692,190.834 353.339,190.906 352.942,190.929 C352.562,190.952 352.203,190.923 351.866,190.84 C351.528,190.757 351.23,190.608 350.972,190.396 C350.714,190.183 350.504,189.901 350.342,189.549 C350.179,189.194 350.082,188.758 350.051,188.239 C350.02,187.716 350.07,187.26 350.203,186.873 C350.335,186.486 350.53,186.161 350.787,185.899 C351.044,185.637 351.355,185.436 351.721,185.296 C352.085,185.154 352.488,185.07 352.928,185.045 C353.227,185.026 353.509,185.039 353.773,185.08 C353.957,185.108 354.132,185.14 354.297,185.176 C354.526,185.228 354.515,185.415 354.515,185.415 L354.472,186.194 C354.472,186.194 354.459,186.367 354.313,186.377 C354.182,186.385 354.104,186.387 354.104,186.387 C354.104,186.387 353.993,186.399 353.935,186.217"
       fill="#FFFFFE"
       id="path53" />
    <path
       d="M362.389,184.432 C362.294,184.265 362.285,184.233 362.221,184.115 C362.141,183.968 362.066,183.935 361.87,183.912 C361.793,183.902 361.712,183.903 361.627,183.906 C361.493,183.909 361.35,183.932 361.198,183.974 C360.92,184.051 360.681,184.17 360.483,184.329 C360.284,184.488 360.131,184.685 360.025,184.923 C359.918,185.16 359.862,185.436 359.856,185.749 C359.85,186.062 359.899,186.41 360.005,186.79 C360.229,187.598 360.562,188.151 361.003,188.45 C361.445,188.749 361.988,188.808 362.634,188.629 C362.822,188.577 363.016,188.498 363.216,188.392 C363.386,188.301 363.575,188.18 363.789,188.042 C363.9,187.969 363.954,188.051 363.954,188.051 L364.011,188.139 C364.011,188.139 364.075,188.241 364.002,188.318 C363.839,188.49 363.636,188.655 363.396,188.813 C363.12,188.998 362.79,189.142 362.407,189.249 C362.04,189.35 361.683,189.396 361.335,189.385 C360.988,189.375 360.665,189.294 360.369,189.14 C360.072,188.987 359.808,188.754 359.574,188.443 C359.34,188.132 359.154,187.725 359.016,187.224 C358.875,186.719 358.829,186.263 358.877,185.856 C358.926,185.45 359.048,185.092 359.244,184.782 C359.44,184.472 359.702,184.21 360.03,183.995 C360.357,183.781 360.733,183.615 361.159,183.497 C361.447,183.417 361.725,183.369 361.991,183.354 C362.177,183.343 362.355,183.339 362.524,183.34 C362.759,183.341 362.787,183.526 362.787,183.526 L362.909,184.298 C362.909,184.298 362.932,184.468 362.791,184.509 C362.665,184.545 362.59,184.564 362.59,184.564 C362.59,184.564 362.483,184.598 362.389,184.432"
       fill="#FFFFFE"
       id="path55" />
    <g
       id="g57"
       transform="translate(202.15715,-402.90061)">
      <path
         d="m 821.353,158.479 c -30.761,0 -55.702,24.946 -55.702,55.71 0,30.764 24.941,55.705 55.702,55.705 30.77,0 55.711,-24.941 55.711,-55.705 0,-30.764 -24.941,-55.71 -55.711,-55.71"
         id="path59"
         inkscape:connector-curvature="0"
         style="fill:#d8232a" />
      <path
         d="m 768.395,214.189 c 0,14.625 5.928,27.863 15.512,37.447 9.586,9.585 22.822,15.514 37.446,15.514 14.628,-10e-4 27.867,-5.929 37.454,-15.514 9.585,-9.584 15.511,-22.822 15.511,-37.447 0,-14.624 -5.926,-27.864 -15.511,-37.45 -9.587,-9.585 -22.827,-15.515 -37.454,-15.515 -16.452,0 -31.148,7.503 -40.865,19.276 -7.555,9.158 -12.093,20.892 -12.093,33.689 z m -0.799,0 c -10e-4,-12.987 4.607,-24.904 12.276,-34.197 9.859,-11.95 24.783,-19.567 41.481,-19.567 29.695,0 53.764,24.075 53.766,53.764 -0.002,29.689 -24.071,53.759 -53.766,53.76 -29.687,-0.001 -53.757,-24.071 -53.757,-53.76"
         id="path61"
         inkscape:connector-curvature="0"
         style="fill:#fffffe" />
      <path
         d="m 779.409,235.997 c 0.008,-0.702 0.583,-1.265 1.286,-1.255 0.703,0.008 1.267,0.583 1.257,1.286 -0.007,0.703 -0.585,1.265 -1.286,1.258 -0.703,-0.009 -1.265,-0.585 -1.257,-1.289"
         id="path63"
         inkscape:connector-curvature="0"
         style="fill:#fffffe" />
      <path
         d="m 860.322,236.756 c 0.008,-0.701 0.584,-1.265 1.287,-1.256 0.702,0.008 1.265,0.584 1.257,1.287 -0.008,0.702 -0.585,1.266 -1.286,1.257 -0.704,-0.009 -1.267,-0.584 -1.258,-1.288"
         id="path65"
         inkscape:connector-curvature="0"
         style="fill:#fffffe" />
      <path
         d="m 857.303,229.368 c -1.971,4.643 -4.779,8.812 -8.363,12.398 -3.582,3.579 -7.751,6.393 -12.397,8.36 -1.827,0.774 -3.698,1.4 -5.603,1.881 l -0.046,-0.777 c 0,-0.467 -0.528,-0.703 -0.819,-0.703 l -1.676,0.027 c 0,0 -0.517,-0.126 -0.579,-0.145 -0.063,-0.019 -0.048,-0.085 -0.037,-0.098 0.117,-0.142 0.124,-0.349 0.009,-0.499 l -1.279,-1.669 0.04,-1.186 c 3.762,-0.093 6.532,-1.521 7.826,-2.464 1.27,-0.94 1.351,-2.377 1.354,-2.803 0,-0.062 -0.003,-0.104 -0.003,-0.121 l -0.038,-3.334 c 0.011,-0.006 0.024,-0.008 0.036,-0.015 l -10e-4,-0.001 3.565,-2 c 0.137,-0.078 0.217,-0.227 0.203,-0.386 l -2.341,-26.078 c 0.102,-0.037 0.433,-0.15 0.807,-0.29 0.455,-0.175 0.936,-0.361 1.221,-0.546 0.255,-0.18 1.329,-1.083 1.588,-1.352 0.226,-0.24 0.312,-0.551 0.31,-0.825 -0.005,-0.431 -0.17,-0.813 -0.336,-1.114 -0.149,-0.254 -0.351,-0.463 -0.57,-0.643 0.491,-1.095 0.74,-2.309 0.74,-3.562 0,-2.188 -0.523,-3.909 -1.027,-5.538 -0.507,-1.631 -0.991,-3.169 -0.991,-5.062 0,-3.516 0.036,-5.603 0.036,-5.607 10e-4,-0.108 -0.04,-0.21 -0.114,-0.287 -0.075,-0.076 -0.179,-0.119 -0.285,-0.119 -1.181,-0.005 -1.914,0.386 -2.316,0.82 -0.188,0.203 -0.303,0.405 -0.373,0.569 l -7.213,0 c -0.071,-0.18 -0.188,-0.413 -0.383,-0.651 -0.39,-0.482 -1.123,-0.945 -2.265,-0.939 -0.108,0 -0.209,0.042 -0.285,0.118 -0.075,0.076 -0.117,0.178 -0.116,0.284 0,0.006 0.022,2.652 0.021,6.362 0.003,0.292 -0.011,0.58 -0.036,0.866 -0.147,-0.233 -0.307,-0.467 -0.476,-0.688 -0.446,-0.571 -0.915,-1.076 -1.494,-1.266 -0.523,-0.16 -1.296,-0.4 -2.203,-0.677 -0.332,-0.105 -0.47,-0.258 -0.563,-0.425 -0.055,-0.099 -0.086,-0.21 -0.102,-0.314 l 0.441,0.01 0.022,0 c 0.398,-0.014 0.738,-0.067 1.029,-0.186 0.286,-0.116 0.548,-0.33 0.645,-0.65 0.049,-0.164 0.066,-0.319 0.066,-0.458 -0.002,-0.157 -0.02,-0.294 -0.04,-0.394 l 0.189,-0.334 c 0.062,-0.108 0.069,-0.237 0.023,-0.347 0.087,-0.082 0.133,-0.198 0.126,-0.32 l -0.028,-0.409 c 0.019,-0.004 0.04,-0.007 0.06,-0.011 0.121,-0.023 0.247,-0.051 0.379,-0.111 0.066,-0.031 0.137,-0.069 0.211,-0.143 0.073,-0.069 0.152,-0.203 0.151,-0.359 -0.002,-0.107 -0.024,-0.363 -0.058,-0.764 -0.087,-0.985 -0.244,-2.654 -0.292,-3.174 0.163,-0.219 0.443,-0.67 0.456,-1.256 10e-4,-0.377 -0.109,-0.822 -0.454,-1.169 -0.335,-0.34 -0.855,-0.54 -1.555,-0.547 -0.309,-0.083 -1.922,-0.511 -2.389,-0.581 -0.348,-0.049 -0.812,-0.13 -1.36,-0.13 -0.932,-0.003 -2.112,0.249 -3.393,1.24 -1.655,1.304 -1.79,3.638 -1.802,4.676 0,0.201 0.007,0.356 0.013,0.447 -0.055,0.167 -0.139,0.511 -0.139,1.06 0,0.3 0.024,0.662 0.093,1.09 0.161,1.038 0.803,1.663 1.368,1.986 0.289,0.165 0.559,0.265 0.761,0.323 l 0,0.76 c -0.314,0.159 -2.309,1.035 -4.226,2.356 -0.04,0.037 -0.199,0.127 -0.347,0.295 -0.003,0.003 -0.008,0.005 -0.012,0.009 l -21.554,21.793 c -0.076,0.077 -0.118,0.184 -0.114,0.292 0.002,0.109 0.05,0.213 0.129,0.285 0.004,0.002 1.486,1.352 3.131,2.856 0.41,0.375 0.829,0.759 1.238,1.135 l -3.951,5.419 c -0.332,0.424 -0.546,1.039 -0.545,1.856 0.005,1.654 0.824,4.166 3.334,8.075 2.864,4.451 5.057,6.504 5.865,7.179 l -1.042,1.197 c -0.035,0.039 -0.37,0.391 -0.715,0.848 -0.18,0.237 -0.364,0.503 -0.507,0.77 -0.035,0.068 -0.069,0.132 -0.1,0.198 -0.706,-0.611 -1.393,-1.25 -2.061,-1.916 -3.58,-3.585 -6.39,-7.754 -8.351,-12.397 -2.04,-4.804 -3.071,-9.914 -3.071,-15.186 0,-5.262 1.031,-10.368 3.071,-15.174 1.961,-4.654 4.771,-8.821 8.351,-12.406 3.589,-3.578 7.754,-6.391 12.401,-8.358 4.811,-2.031 9.914,-3.058 15.187,-3.06 5.263,0.002 10.369,1.029 15.18,3.06 4.646,1.967 8.815,4.78 12.397,8.358 3.586,3.585 6.392,7.752 8.364,12.405 2.029,4.806 3.058,9.913 3.058,15.175 0,5.272 -1.029,10.382 -3.059,15.186 z m -36.113,23.818 c 2.285,-0.393 4.304,-1.142 5.78,-2.207 l 1.257,0.361 c 0.045,0.012 0.093,0.018 0.14,0.016 0,0 1.169,-0.062 1.266,-0.069 0.332,-0.021 0.482,0.175 0.485,0.245 0.003,0.07 0.01,0.155 0.01,0.155 0,0 0.014,0.208 -0.123,0.344 -0.125,0.125 -1.026,0.374 -1.354,0.478 -2.386,0.45 -4.82,0.68 -7.288,0.68 -0.057,0 -0.116,-0.003 -0.173,-0.003 z m -22.972,-10.611 c 0.143,0.003 0.303,0.006 0.484,0.007 3.174,-0.001 11.628,-0.73 17.789,-7.992 5.07,-6.018 6.341,-17.506 6.54,-19.518 l 1.588,-0.112 c -0.056,0.823 -0.197,2.771 -0.443,5.406 -0.332,3.532 -0.851,8.286 -1.606,13.174 -0.755,4.889 -1.665,9.734 -2.386,13.356 -0.532,2.68 -0.961,4.684 -1.149,5.549 -0.017,0.077 -0.115,0.221 -0.301,0.221 -0.44,0 -0.883,0.04 -1.333,0.039 -1.459,10e-4 -2.963,-0.136 -4.449,-0.423 -0.779,-0.171 -1.552,-0.365 -2.318,-0.584 -5.511,-1.737 -8.709,-4.192 -10.534,-6.179 -0.914,-0.997 -1.483,-1.883 -1.822,-2.515 -0.055,-0.101 -0.104,-0.195 -0.146,-0.282 -0.046,-0.095 0.006,-0.149 0.086,-0.147 z m 0.191,-0.929 c 0.102,-0.116 10.876,-12.487 10.876,-12.487 0.041,-0.046 0.069,-0.1 0.084,-0.158 0,0 3.189,-11.766 3.212,-11.849 0.022,-0.082 0.105,-0.105 0.105,-0.105 0,0 5.651,-1.546 5.868,-1.609 0.219,-0.062 0.532,-0.088 0.532,-0.088 l 3.138,-0.222 c -0.037,0.367 -0.101,0.955 -0.205,1.712 -0.534,3.976 -2.161,12.559 -6.139,17.233 -5.92,6.995 -14.11,7.709 -17.178,7.708 -0.069,0 -0.134,0 -0.196,-0.001 -0.117,0 -0.197,-0.018 -0.097,-0.134 z m 31.647,-52.752 0,3.12 c -0.268,0.149 -0.475,0.28 -0.588,0.346 -0.361,0.231 -0.847,0.667 -0.941,0.749 l -0.002,0.002 c 0.14,-1.066 0.24,-2.41 0.254,-4.217 l 1.277,0 z m 1.817,0 0,2.386 c -0.351,0.074 -0.697,0.197 -1.017,0.336 l 0,-2.722 1.017,0 z m 1.755,0 0,2.456 c -0.288,-0.108 -0.61,-0.144 -0.956,-0.149 l 0,-2.307 0.956,0 z m 1.526,5.143 c -0.046,-0.143 -0.136,-0.356 -0.41,-0.449 -0.071,-0.02 -0.146,-0.039 -0.218,-0.056 -10e-4,-0.252 -0.005,-0.602 -0.005,-0.876 0.005,-0.193 -0.029,-0.377 -0.093,-0.545 l 0,-3.217 1.254,0 c 0.021,3.297 0.309,5.255 0.597,6.673 0.301,1.48 0.582,2.33 0.582,3.512 0,1.272 -0.49,2.484 -1.295,3.369 -0.332,0.364 -0.716,0.672 -1.138,0.91 l 0,-7.777 c 0.028,-0.004 0.058,-0.007 0.082,-0.01 0.04,-0.003 0.074,-0.008 0.1,-0.009 0.024,-0.002 0.034,-0.001 0.034,-0.002 0.149,0 0.255,-0.074 0.308,-0.125 0.17,-0.189 0.167,-0.3 0.212,-0.457 0.031,-0.147 0.048,-0.315 0.049,-0.484 -10e-4,-0.152 -0.013,-0.302 -0.059,-0.457 z m -2.482,9.845 0,-8.028 c 0.368,-0.091 0.689,-0.173 0.808,-0.202 l 0.148,0 0,8.052 c -0.306,0.095 -0.624,0.156 -0.956,0.178 z m -1.816,-0.203 0,-7.487 c 0.071,-0.004 0.14,-0.007 0.195,-0.007 0.164,-0.003 0.331,-0.04 0.585,-0.091 0.074,-0.016 0.154,-0.035 0.237,-0.052 l 0,7.825 c -0.348,-0.033 -0.688,-0.096 -1.017,-0.188 z m -3.341,-3.61 c 0.934,-1.146 1.964,-2.553 2.541,-3.352 l 0,6.67 c -0.399,-0.185 -0.77,-0.416 -1.097,-0.694 -0.753,-0.645 -1.283,-1.516 -1.444,-2.624 z m 0.157,14.631 0.29,-0.059 c 0.186,-0.038 0.319,-0.202 0.319,-0.391 l 0.014,-5.186 c 1.067,0.43 2.308,0.679 3.721,0.679 0.004,0 0.008,0 0.013,0 0.907,0.001 1.75,-0.101 2.529,-0.281 l 0.373,32.127 10e-4,0.022 c 0,0 10e-4,0.021 10e-4,0.079 0.002,0.329 -0.085,1.481 -1.027,2.157 -1.167,0.855 -3.785,2.214 -7.325,2.309 l 1.091,-31.456 z m -13.367,-9.247 c -0.631,-0.866 -2.468,-3.44 -3.09,-8.133 0.043,0.049 0.087,0.098 0.131,0.145 0.665,0.697 1.419,1.16 1.869,1.391 4.005,2.147 10.438,4.678 10.445,4.682 0.003,10e-4 0.008,10e-4 0.013,0.002 0.057,0.269 0.13,0.534 0.216,0.795 l -6.035,0.37 c 0,0 -0.708,0.03 -1.22,0.176 -0.616,0.174 -2.027,0.575 -2.123,0.606 -0.118,0.039 -0.185,-0.003 -0.206,-0.034 z m -2.458,10.095 c 0,0 2.601,-8.989 2.636,-9.11 0.035,-0.121 0.155,-0.155 0.155,-0.155 0,0 1.904,-0.533 2.206,-0.631 0.304,-0.098 0.802,-0.135 0.802,-0.135 l 6.542,-0.401 c 0.341,0.767 0.808,1.49 1.413,2.128 0.53,0.56 1.164,1.049 1.897,1.445 0,0 -0.014,4.973 -0.014,5.068 0,0.095 -0.047,0.201 -0.256,0.218 -0.21,0.018 -6.58,0.464 -8.167,0.576 -0.225,0.015 -0.495,0.055 -0.738,0.121 -0.241,0.067 -5.788,1.588 -5.788,1.588 0,0 -0.189,0.029 -0.285,-0.045 -0.094,-0.077 -0.143,-0.115 -0.314,-0.251 -0.17,-0.135 -0.089,-0.416 -0.089,-0.416 z m 13.944,32.968 c 0,0 1.037,1.344 1.076,1.404 0.041,0.061 0.01,0.131 -0.019,0.154 -1.569,1.281 -4.114,2.177 -7.022,2.498 0.457,-2.114 2.225,-10.436 3.534,-18.91 1.349,-8.737 1.949,-17.034 2.065,-18.758 0,0 1.049,-0.068 1.234,-0.086 0.182,-0.019 0.206,0.09 0.201,0.201 -0.003,0.113 -1.152,33.24 -1.152,33.24 -0.003,0.093 0.027,0.184 0.083,0.257 z m 12.873,-12.987 c 0,0 0.015,0.116 -0.08,0.17 -0.093,0.052 -2.904,1.63 -2.904,1.63 l -0.326,-28.087 c 0.319,-0.104 0.626,-0.224 0.919,-0.357 l 2.391,26.644 z m -1.174,-27.754 c -0.215,-0.304 -0.287,-0.51 -0.284,-0.644 0,-0.047 0.007,-0.09 0.021,-0.139 l 0.002,0 c 0.03,-0.075 0.27,-0.332 0.484,-0.513 0.216,-0.189 0.409,-0.335 0.41,-0.336 0.112,-0.07 0.185,-0.25 0.175,-0.357 -0.006,-0.159 -0.048,-0.215 -0.072,-0.278 -0.028,-0.056 -0.056,-0.105 -0.078,-0.15 -0.027,-0.06 -0.045,-0.193 0.076,-0.312 0.136,-0.138 0.328,-0.082 0.368,-0.064 0.146,0.059 0.391,0.17 0.626,0.31 0.349,0.203 0.699,0.489 0.829,0.729 0.13,0.226 0.237,0.521 0.232,0.721 -10e-4,0.132 -0.055,0.233 -0.12,0.306 -0.129,0.146 -1.303,1.132 -1.424,1.208 -0.125,0.089 -0.628,0.302 -1.054,0.46 -0.125,0.046 -0.245,0.091 -0.353,0.129 -0.147,0.062 -0.17,-0.035 -0.17,-0.035 0,0 -0.029,-0.087 0.029,-0.143 0.067,-0.055 0.134,-0.117 0.2,-0.187 0.07,-0.093 0.173,-0.18 0.19,-0.43 10e-4,-0.085 -0.027,-0.19 -0.087,-0.275 z m -11.103,-22.13 c 0,-0.175 0.06,-0.203 0.089,-0.199 0.611,0.097 0.941,0.359 1.155,0.611 0.132,0.159 0.211,0.319 0.257,0.437 0.023,0.059 0.037,0.107 0.045,0.138 0.004,0.016 0.006,0.026 0.007,0.031 l 10e-4,10e-4 c 0.033,0.193 0.2,0.334 0.395,0.334 l 7.799,0 c 0.199,0 0.366,-0.145 0.396,-0.341 0.008,-0.039 0.07,-0.29 0.32,-0.531 0.209,-0.196 0.552,-0.41 1.174,-0.487 0.085,-0.018 0.1,0.065 0.1,0.139 0,0.826 -0.029,2.546 -0.029,5.045 0,2.035 0.524,3.675 1.027,5.299 0.505,1.629 0.991,3.242 0.991,5.301 0,1.1 -0.21,2.156 -0.616,3.109 -0.358,-0.199 -0.659,-0.321 -0.825,-0.369 -0.057,-0.015 -0.113,-0.022 -0.167,-0.022 -0.316,0.014 -0.519,0.154 -0.721,0.293 -0.196,0.16 -0.347,0.272 -0.46,0.519 -0.032,0.082 -0.045,0.166 -0.045,0.243 0.005,0.22 0.08,0.37 0.137,0.486 -0.083,0.068 -0.18,0.148 -0.28,0.239 -0.13,0.116 -0.265,0.244 -0.383,0.377 -0.117,0.137 -0.223,0.257 -0.29,0.457 -0.038,0.121 -0.058,0.247 -0.058,0.376 0.001,0.244 0.069,0.47 0.182,0.694 -1.21,0.703 -2.728,1.116 -4.559,1.117 -2.668,-0.002 -4.58,-0.917 -5.848,-2.248 -0.944,-0.993 -1.529,-2.231 -1.766,-3.51 0.395,-0.333 1.086,-0.942 1.962,-1.821 0.148,-0.15 0.312,-0.327 0.485,-0.52 0.281,1.001 0.844,1.836 1.579,2.458 1.024,0.869 2.366,1.34 3.756,1.382 0.025,0.005 0.049,0.008 0.075,0.008 0.011,0 0.021,-0.002 0.031,-0.003 0.033,0.001 0.064,0.004 0.097,0.004 3.005,-0.009 5.255,-2.666 5.261,-5.613 -0.002,-1.322 -0.311,-2.246 -0.599,-3.671 -0.289,-1.431 -0.581,-3.415 -0.581,-6.915 0,-0.105 -0.043,-0.207 -0.118,-0.281 -0.074,-0.076 -0.178,-0.118 -0.283,-0.118 l -7.7,0 c -0.105,0 -0.209,0.042 -0.282,0.117 -0.075,0.075 -0.118,0.177 -0.118,0.282 0,2.504 -0.161,4.111 -0.368,5.312 l -1.809,1.373 c 0.143,-0.519 0.273,-1.047 0.375,-1.586 0.005,-0.024 0.01,-0.046 0.012,-0.07 0.129,-0.694 0.211,-1.409 0.213,-2.149 0,-2.628 -0.011,-4.725 -0.016,-5.728 z m -12.527,6.097 c 0.61,-0.003 1.156,0.175 1.474,0.498 0.519,0.518 1.08,1.226 1.506,1.799 0.425,0.573 0.714,1.01 0.715,1.011 0.029,0.044 0.066,0.08 0.11,0.111 l 4.79,3.225 c 0.143,0.097 0.328,0.092 0.466,-0.012 l 6.1,-4.636 0.026,-0.022 c 0,0 0.135,-0.122 0.312,-0.27 0.176,-0.147 0.399,-0.322 0.535,-0.409 0.318,-0.209 1.665,-1.007 2.52,-1.03 0.076,-0.004 0.148,-0.006 0.217,-0.006 0.413,-0.002 0.718,0.069 0.869,0.169 0.144,0.104 0.211,0.187 0.221,0.486 0,0.488 0.009,1.208 0.009,1.208 0.002,0.194 0.141,0.323 0.332,0.356 0.15,0 0.352,0.043 0.352,0.274 0,0.265 -0.181,0.305 -0.266,0.315 -0.146,0.019 -0.283,0.035 -0.34,0.043 l -0.376,-0.001 -0.102,0.013 c -0.001,0 -0.514,0.133 -1.066,0.265 -0.277,0.067 -0.562,0.134 -0.794,0.182 -0.115,0.023 -0.217,0.044 -0.295,0.057 -0.039,0.006 -0.072,0.012 -0.095,0.014 -0.023,0.004 -0.029,0.003 -0.029,0.004 -0.353,0.001 -0.9,0.062 -0.908,0.063 -0.114,0.013 -0.217,0.073 -0.283,0.166 -0.002,0.002 -0.676,0.961 -1.523,2.091 -0.845,1.13 -1.87,2.438 -2.525,3.093 -0.68,0.682 -1.246,1.197 -1.64,1.54 -0.122,0.107 -0.228,0.196 -0.316,0.27 -0.044,0.037 -0.154,0.086 -0.267,0.039 -0.586,-0.24 -1.835,-0.741 -3.34,-1.384 -2.098,-0.896 -4.694,-2.061 -6.664,-3.116 -0.392,-0.201 -1.086,-0.63 -1.661,-1.234 -0.061,-0.066 -0.121,-0.134 -0.18,-0.202 -0.019,-0.024 -0.038,-0.046 -0.055,-0.068 -0.045,-0.054 -0.088,-0.108 -0.129,-0.163 -0.031,-0.043 -0.063,-0.089 -0.092,-0.132 -0.026,-0.038 -0.051,-0.075 -0.076,-0.113 -0.028,-0.045 -0.056,-0.09 -0.083,-0.137 -0.009,-0.019 -0.02,-0.038 -0.03,-0.056 -0.054,-0.097 -0.102,-0.197 -0.145,-0.299 -0.007,-0.015 -0.013,-0.029 -0.02,-0.042 -0.023,-0.061 -0.046,-0.12 -0.066,-0.181 0,-10e-4 0,-10e-4 0,-10e-4 -10e-4,-0.001 -10e-4,-0.002 -10e-4,-0.003 -0.036,-0.107 -0.064,-0.216 -0.088,-0.33 -0.01,-0.047 -0.02,-0.095 -0.027,-0.144 -0.005,-0.036 -0.011,-0.074 -0.015,-0.111 -0.009,-0.094 -0.017,-0.186 -0.017,-0.282 0,-0.061 0.003,-0.126 0.008,-0.19 0.003,-0.052 0.009,-0.107 0.016,-0.161 10e-4,-0.008 0.003,-0.017 0.004,-0.027 0.017,-0.127 0.044,-0.259 0.081,-0.392 0,-0.001 0,-0.001 0,-0.001 l 0,-0.001 c 0.024,-0.081 0.049,-0.164 0.079,-0.248 0.002,-0.004 0.003,-0.008 0.004,-0.013 0.028,-0.075 0.061,-0.155 0.095,-0.234 0.006,-0.011 0.01,-0.022 0.015,-0.034 0.033,-0.072 0.071,-0.148 0.11,-0.223 0.009,-0.016 0.016,-0.034 0.025,-0.05 0.049,-0.091 0.102,-0.182 0.16,-0.277 0.362,-0.607 1.407,-1.068 2.363,-1.057 z m 3.912,0.764 c 0.072,0.056 0.158,0.085 0.247,0.085 0.009,0 0.017,0 0.026,0 l 4.653,-0.317 c 0.153,-0.011 0.286,-0.106 0.343,-0.249 0.059,-0.141 0.029,-0.302 -0.071,-0.415 l -0.838,-0.939 c 0.487,0.15 0.907,0.279 1.231,0.379 0.248,0.063 0.705,0.465 1.092,0.986 0.366,0.478 0.702,1.046 0.923,1.503 -0.164,0.826 -0.401,1.639 -0.652,2.46 l -2.062,1.565 -4.488,-3.023 c -0.227,-0.338 -1.272,-1.857 -2.277,-2.867 -0.532,-0.526 -1.286,-0.732 -2.039,-0.732 -0.139,0 -0.279,0.008 -0.419,0.024 0.197,-0.109 0.394,-0.214 0.586,-0.316 0.293,-0.154 0.573,-0.3 0.823,-0.429 l 2.922,2.285 z m 4.634,-6.635 c 0,0 0.007,0.123 -0.099,0.183 -0.106,0.059 -0.179,0.164 -0.198,0.283 -0.02,0.121 0.032,0.234 0.097,0.332 0.015,0.024 0.018,0.076 -0.009,0.124 -0.027,0.048 -0.078,0.139 -0.078,0.139 -0.057,0.098 -0.068,0.214 -0.034,0.321 0,0 0,0 0.005,0.016 0.013,0.047 0.042,0.178 0.042,0.316 0,0.077 -0.062,0.3 -0.218,0.369 -0.15,0.064 -0.402,0.114 -0.733,0.125 l -0.843,-0.016 c -0.195,-0.005 -0.365,0.134 -0.4,0.326 -0.004,0.019 -0.024,0.127 -0.024,0.291 10e-4,0.22 0.033,0.548 0.211,0.881 0.068,0.129 0.16,0.256 0.278,0.372 10e-4,0.001 0.003,0.003 0.004,0.005 l 1.421,1.594 -3.684,0.251 -2.51,-1.963 c 0.124,-0.061 0.195,-0.098 0.195,-0.098 0.138,-0.067 0.223,-0.205 0.223,-0.358 l 0,-1.159 1.611,-1.615 c 0.099,-0.1 0.139,-0.247 0.105,-0.381 -0.035,-0.137 -0.14,-0.245 -0.273,-0.285 l 0,-0.001 c -0.074,-0.05 -0.556,-0.204 -0.572,-1.192 0.005,-0.161 0.045,-0.183 0.079,-0.22 0.014,-0.011 0.028,-0.02 0.04,-0.026 l 1.047,-0.009 c 0.123,-0.001 0.24,-0.059 0.315,-0.157 0,0 1.678,-2.217 1.794,-2.361 0.114,-0.146 0.291,-0.156 0.291,-0.156 l 2.271,-0.248 c 0,0 0.115,-0.007 0.134,0.134 0.019,0.209 0.043,0.464 0.069,0.742 0.005,0.115 -0.072,0.158 -0.116,0.159 -0.289,0.01 -0.589,0.018 -0.91,0.031 -0.336,0.011 -0.701,0.166 -0.943,0.37 -0.18,0.15 -0.186,0.431 -0.019,0.592 0.092,0.088 0.292,0.117 0.51,0.184 0.276,0.083 0.582,0.188 0.736,0.139 0.195,-0.063 0.268,-0.236 0.282,-0.425 0.015,-0.211 0.141,-0.356 0.355,-0.356 0.09,0 0.145,0.075 0.153,0.151 0.04,0.398 0.113,0.902 0.138,1.188 0.011,0.14 0.023,0.269 0.031,0.379 0.004,0.143 -0.121,0.154 -0.184,0.161 -0.133,0.017 -0.238,0.02 -0.238,0.021 -0.108,0.005 -0.208,0.053 -0.279,0.133 -0.073,0.082 -0.109,0.186 -0.101,0.293 l 0.028,0.421 z m -6.113,-3.055 c -0.071,-0.204 -0.289,-0.315 -0.493,-0.252 0.174,-0.155 0.346,-0.306 0.513,-0.448 l 1.717,-0.225 c 0.22,-0.03 0.373,-0.231 0.345,-0.449 -0.028,-0.219 -0.23,-0.372 -0.449,-0.344 l -0.261,0.034 c 0.536,-0.316 1.085,-0.571 1.538,-0.758 0.306,-0.127 0.569,-0.223 0.753,-0.286 0.184,-0.063 0.285,-0.092 0.285,-0.093 0.211,-0.063 0.333,-0.286 0.27,-0.498 -0.063,-0.211 -0.286,-0.331 -0.498,-0.269 -0.011,0.004 -0.68,0.202 -1.543,0.592 0.125,-0.18 0.082,-0.429 -0.098,-0.555 -0.181,-0.127 -0.43,-0.084 -0.556,0.097 l -0.92,1.306 c -0.082,0.054 -0.165,0.109 -0.245,0.164 -0.118,0.084 -0.248,0.182 -0.386,0.289 l 0.094,-0.182 c 0.1,-0.196 0.023,-0.438 -0.173,-0.538 -0.196,-0.102 -0.438,-0.023 -0.538,0.174 l -1.007,1.957 c -0.249,0.233 -0.482,0.451 -0.681,0.64 0.032,-1.046 0.313,-2.886 1.486,-3.762 1.154,-0.884 2.109,-1.07 2.905,-1.074 0.469,0 0.882,0.07 1.247,0.123 0.174,0.023 0.789,0.171 1.322,0.307 0.541,0.137 1.025,0.266 1.025,0.267 l 0.104,0.013 c 0.591,0.002 0.883,0.154 1.04,0.311 0.157,0.158 0.22,0.372 0.221,0.606 0.002,0.202 -0.086,0.429 -0.184,0.6 -0.035,0.063 -0.068,0.113 -0.1,0.157 l -2.985,0.326 c -0.108,0.013 -0.207,0.069 -0.274,0.156 l -1.88,2.476 -0.92,0.007 -0.084,0.011 c -0.037,0.008 -0.206,0.047 -0.392,0.201 -0.188,0.149 -0.374,0.449 -0.368,0.834 -0.003,0.747 0.253,1.259 0.537,1.556 0.029,0.033 0.058,0.061 0.087,0.088 l -1.224,1.228 c -0.19,-0.052 -0.5,-0.159 -0.79,-0.361 -0.371,-0.263 -0.71,-0.647 -0.821,-1.319 -0.062,-0.389 -0.083,-0.71 -0.083,-0.964 0,-0.271 0.024,-0.466 0.049,-0.601 0.004,-0.005 0.01,-0.007 0.014,-0.012 0,-0.001 0.18,-0.176 0.462,-0.446 l 1.691,-0.578 c 0.208,-0.071 0.32,-0.298 0.248,-0.506 z m -20.986,41.88 c 0.225,0.045 0.435,0.065 0.631,0.065 0.705,0.002 1.219,-0.267 1.53,-0.541 0.315,-0.274 0.446,-0.543 0.462,-0.574 l 0.002,-0.004 c 0,-0.001 10e-4,-0.002 10e-4,-0.002 0.002,-0.005 0.005,-0.012 0.009,-0.021 l 0.022,-0.054 12.168,-28.453 c 0.025,0.189 0.081,0.557 0.134,0.735 0.188,3.196 0.922,5.435 1.692,7.154 0.446,0.994 0.901,1.754 1.256,2.289 0.179,0.268 0.332,0.482 0.445,0.636 0.039,0.053 0.074,0.098 0.102,0.137 l -2.838,9.801 c -0.045,0.155 0.009,0.323 0.134,0.424 l 0.677,0.536 c 0,0 0.085,0.08 0.045,0.227 -0.04,0.147 -3.157,11.651 -3.157,11.651 l -9.895,11.362 c -0.732,-0.607 -2.881,-2.595 -5.72,-7.007 -2.473,-3.84 -3.212,-6.262 -3.206,-7.643 10e-4,-0.687 0.171,-1.105 0.374,-1.363 0.003,-0.004 0.006,-0.006 0.009,-0.009 l 0.01,-0.015 c 0.012,-0.014 0.025,-0.03 0.036,-0.044 0.227,-0.252 0.504,-0.34 0.715,-0.34 0.025,0 0.051,0.002 0.075,0.005 1.101,0.127 2.656,0.725 4.287,1.048 z m -5.331,-10.858 19.787,-20.008 -11.863,27.849 c -0.176,-0.466 -0.489,-0.973 -1.009,-1.475 -1.109,-1.077 -5.681,-5.242 -6.915,-6.366 z m 6.358,6.939 c 0.814,0.797 0.96,1.489 0.965,1.958 0,0.188 -0.027,0.341 -0.052,0.442 -0.013,0.05 -0.025,0.087 -0.033,0.109 -0.003,0.006 -0.004,0.011 -0.006,0.014 -0.036,0.055 -0.355,0.661 -1.27,0.661 -0.141,0 -0.299,-0.014 -0.477,-0.049 -1.548,-0.301 -3.077,-0.901 -4.341,-1.058 -0.021,-0.003 -0.046,-0.002 -0.068,-0.004 l 3.037,-4.166 c 0.992,0.913 1.851,1.712 2.245,2.093 z m 0.331,23.602 c -0.059,-0.049 -0.162,-0.219 -0.11,-0.346 0.021,-0.054 0.051,-0.111 0.083,-0.171 0.173,-0.319 0.452,-0.692 0.686,-0.974 0.413,0.891 1.411,2.617 3.518,4.476 -1.455,-0.901 -2.848,-1.897 -4.177,-2.985 z m 61.375,-45.684 c -2.011,-4.746 -4.878,-9.002 -8.535,-12.659 -3.654,-3.65 -7.911,-6.522 -12.651,-8.529 -4.908,-2.072 -10.123,-3.121 -15.491,-3.121 -5.377,0 -10.589,1.049 -15.499,3.121 -4.741,2.007 -8.994,4.881 -12.654,8.529 -3.652,3.657 -6.521,7.913 -8.523,12.66 -2.081,4.904 -3.134,10.119 -3.134,15.486 0,5.377 1.053,10.596 3.134,15.497 2.002,4.738 4.871,8.996 8.523,12.652 3.66,3.652 7.913,6.525 12.653,8.53 1.486,0.629 3,1.163 4.537,1.602 0.014,0.003 0.026,0.008 0.04,0.012 0.771,0.242 1.555,0.433 2.342,0.587 2.798,0.616 5.665,0.926 8.581,0.926 1.776,0 3.534,-0.117 5.271,-0.347 0.005,0 0.009,0 0.013,0 1.012,-0.057 1.725,-0.21 2.194,-0.354 2.741,-0.521 5.421,-1.329 8.013,-2.426 4.74,-2.005 8.997,-4.878 12.651,-8.53 l -0.283,-0.283 0.283,0.283 c 3.657,-3.656 6.524,-7.914 8.535,-12.652 2.07,-4.901 3.122,-10.12 3.122,-15.497 0,-5.367 -1.052,-10.582 -3.122,-15.487"
         id="path67"
         inkscape:connector-curvature="0"
         style="fill:#fffffe" />
      <path
         d="m 775.857,217.576 c 0.459,-0.059 0.852,-0.055 1.18,0.013 0.329,0.069 0.606,0.203 0.833,0.403 0.228,0.2 0.408,0.468 0.541,0.802 0.133,0.332 0.23,0.734 0.292,1.204 0.052,0.402 0.057,0.773 0.016,1.113 -0.042,0.34 -0.142,0.64 -0.305,0.902 -0.16,0.259 -0.384,0.474 -0.672,0.642 -0.287,0.169 -0.972,0.314 -0.972,0.314 -0.066,0.014 -0.173,0.031 -0.238,0.039 l -3.528,0.463 c -0.065,0.008 -0.122,0.069 -0.126,0.136 l -0.029,0.52 c -0.005,0.066 -0.062,0.128 -0.127,0.136 l -0.157,0.021 c -0.065,0.008 -0.127,-0.038 -0.135,-0.105 l -0.311,-2.375 c -0.008,-0.067 0.039,-0.126 0.104,-0.135 l 0.157,-0.022 c 0.065,-0.008 0.136,0.037 0.157,0.1 l 0.161,0.485 c 0.021,0.064 0.093,0.109 0.158,0.099 l 3.949,-0.514 c 0.483,-0.064 0.845,-0.258 1.086,-0.583 0.242,-0.327 0.326,-0.772 0.251,-1.344 -0.077,-0.59 -0.277,-0.998 -0.601,-1.228 -0.323,-0.229 -1.306,-0.221 -1.306,-0.221 -0.066,0 -0.175,0.008 -0.24,0.018 l -3.584,0.468 c -0.066,0.008 -0.124,0.07 -0.127,0.136 l -0.03,0.52 c -0.004,0.066 -0.061,0.127 -0.128,0.136 l -0.155,0.02 c -0.066,0.009 -0.127,-0.038 -0.135,-0.104 l -0.278,-2.131 c -0.009,-0.066 0.037,-0.126 0.103,-0.136 l 0.156,-0.019 c 0.065,-0.009 0.137,0.036 0.158,0.098 l 0.163,0.496 c 0.02,0.063 0.091,0.107 0.156,0.099 l 3.563,-0.466"
         id="path69"
         inkscape:connector-curvature="0"
         style="fill:#fffffe" />
      <path
         d="m 771.598,212.052 c 0.005,-0.067 0.057,-0.15 0.113,-0.182 l 4.983,-2.969 -4.17,-0.307 c -0.066,-0.004 -0.135,0.043 -0.153,0.108 l -0.134,0.493 c -0.017,0.065 -0.086,0.112 -0.151,0.108 l -0.158,-0.012 c -0.065,-0.006 -0.116,-0.064 -0.111,-0.129 l 0.155,-2.049 c 0.005,-0.066 0.063,-0.117 0.13,-0.112 l 0.157,0.013 c 0.066,0.005 0.126,0.063 0.134,0.128 l 0.058,0.519 c 0.008,0.065 0.068,0.123 0.134,0.129 l 5.905,0.448 c 0.067,0.005 0.117,0.064 0.112,0.13 l -0.044,0.581 c -0.006,0.067 -0.056,0.148 -0.115,0.182 l -5.755,3.377 4.851,0.367 c 0.065,0.005 0.134,-0.042 0.152,-0.107 l 0.134,-0.493 c 0.017,-0.065 0.086,-0.114 0.152,-0.108 l 0.157,0.012 c 0.067,0.005 0.116,0.063 0.111,0.128 l -0.155,2.05 c -0.005,0.066 -0.063,0.117 -0.13,0.112 l -0.156,-0.013 c -0.067,-0.005 -0.127,-0.063 -0.134,-0.128 l -0.059,-0.52 c -0.007,-0.064 -0.067,-0.123 -0.134,-0.128 l -5.307,-0.403 c -0.067,-0.004 -0.136,0.043 -0.152,0.109 l -0.137,0.503 c -0.017,0.063 -0.085,0.112 -0.152,0.106 l -0.156,-0.01 c -0.066,-0.005 -0.117,-0.065 -0.112,-0.131 l 0.137,-1.802"
         id="path71"
         inkscape:connector-curvature="0"
         style="fill:#fffffe" />
      <path
         d="m 773.644,200.994 c 0.065,0.016 0.114,0.083 0.111,0.15 l -0.028,0.511 c -0.004,0.067 0.045,0.134 0.111,0.151 l 5.165,1.289 c 0.064,0.017 0.14,-0.019 0.168,-0.08 l 0.216,-0.464 c 0.028,-0.06 0.102,-0.096 0.168,-0.081 l 0.153,0.038 c 0.064,0.017 0.103,0.083 0.087,0.147 l -0.581,2.326 c -0.016,0.064 -0.082,0.103 -0.146,0.086 l -0.153,-0.037 c -0.064,-0.017 -0.114,-0.084 -0.11,-0.151 l 0.028,-0.511 c 0.003,-0.066 -0.046,-0.133 -0.112,-0.151 l -5.164,-1.288 c -0.064,-0.017 -0.14,0.019 -0.168,0.079 l -0.216,0.464 c -0.028,0.061 -0.103,0.097 -0.168,0.081 l -0.153,-0.039 c -0.064,-0.015 -0.103,-0.08 -0.087,-0.145 l 0.58,-2.324 c 0.016,-0.066 0.083,-0.104 0.147,-0.088 l 0.152,0.037"
         id="path73"
         inkscape:connector-curvature="0"
         style="fill:#fffffe" />
      <path
         d="m 781.737,197.074 c 0.047,0.046 0.066,0.135 0.039,0.196 l -0.28,0.659 c -0.026,0.062 -0.102,0.108 -0.168,0.104 l -6.27,-0.425 c -0.066,-0.004 -0.152,0.038 -0.191,0.09 l -0.231,0.316 c -0.039,0.054 -0.12,0.076 -0.182,0.051 l -0.145,-0.062 c -0.061,-0.025 -0.09,-0.097 -0.064,-0.158 l 0.86,-2.021 c 0.027,-0.062 0.098,-0.09 0.159,-0.065 l 0.145,0.062 c 0.062,0.026 0.101,0.101 0.09,0.166 l -0.075,0.403 c -0.012,0.066 0.031,0.123 0.099,0.129 l 5.036,0.39 -3.698,-3.538 c -0.048,-0.046 -0.119,-0.038 -0.157,0.017 l -0.277,0.407 c -0.037,0.056 -0.117,0.079 -0.179,0.054 l -0.145,-0.062 c -0.061,-0.026 -0.09,-0.098 -0.064,-0.159 l 0.775,-1.82 c 0.026,-0.062 0.098,-0.09 0.159,-0.064 l 0.144,0.062 c 0.061,0.026 0.101,0.1 0.087,0.165 l -0.098,0.475 c -0.014,0.063 0.014,0.155 0.062,0.2 l 4.569,4.428"
         id="path75"
         inkscape:connector-curvature="0"
         style="fill:#fffffe" />
      <path
         d="m 794.333,179.869 c 0.152,-0.04 0.308,-0.1 0.472,-0.177 0.162,-0.077 0.294,-0.154 0.396,-0.228 0.361,-0.268 0.586,-0.554 0.675,-0.86 0.089,-0.305 0.026,-0.603 -0.189,-0.892 -0.127,-0.174 -0.275,-0.293 -0.442,-0.36 -0.167,-0.065 -0.344,-0.099 -0.531,-0.103 -0.187,-0.003 -0.381,0.014 -0.581,0.052 -0.2,0.037 -0.4,0.07 -0.598,0.1 -0.301,0.04 -0.573,0.076 -0.817,0.109 -0.246,0.03 -0.468,0.033 -0.67,0.009 -0.204,-0.022 -0.389,-0.084 -0.561,-0.182 -0.17,-0.097 -0.332,-0.251 -0.488,-0.46 -0.169,-0.229 -0.27,-0.467 -0.303,-0.714 -0.034,-0.247 -0.006,-0.495 0.08,-0.744 0.088,-0.25 0.232,-0.496 0.432,-0.74 0.202,-0.243 0.453,-0.475 0.753,-0.698 0.112,-0.083 0.24,-0.165 0.38,-0.245 0.141,-0.081 0.284,-0.158 0.431,-0.231 0.147,-0.073 0.292,-0.139 0.437,-0.199 0.145,-0.059 0.279,-0.101 0.279,-0.101 0.063,-0.019 0.128,-0.025 0.145,-0.012 0.017,0.014 0.057,0.074 0.09,0.131 l 0.504,0.887 c 0.033,0.058 0.016,0.139 -0.038,0.179 l -0.332,0.245 c -0.053,0.038 -0.139,0.036 -0.189,-0.006 l -0.619,-0.518 c -0.11,0.002 -0.237,0.031 -0.383,0.088 -0.147,0.058 -0.307,0.15 -0.479,0.277 -0.311,0.23 -0.505,0.484 -0.579,0.765 -0.076,0.281 -0.02,0.548 0.168,0.803 0.12,0.163 0.251,0.275 0.391,0.337 0.14,0.062 0.288,0.093 0.447,0.094 0.158,0.002 0.323,-0.016 0.492,-0.051 0.172,-0.035 0.347,-0.07 0.528,-0.101 0.25,-0.034 0.511,-0.075 0.783,-0.123 0.271,-0.047 0.535,-0.065 0.791,-0.054 0.256,0.01 0.498,0.062 0.723,0.156 0.226,0.093 0.42,0.26 0.584,0.501 0.207,0.312 0.324,0.61 0.352,0.892 0.028,0.283 -0.01,0.552 -0.114,0.81 -0.104,0.258 -0.271,0.508 -0.499,0.747 -0.227,0.24 -0.495,0.472 -0.799,0.697 -0.276,0.203 -0.563,0.379 -0.863,0.527 -0.3,0.147 -0.69,0.304 -0.69,0.304 -0.062,0.026 -0.125,0.034 -0.139,0.018 -0.014,-0.014 -0.053,-0.074 -0.086,-0.131 l -0.51,-0.884 c -0.034,-0.058 -0.018,-0.137 0.036,-0.176 l 0.333,-0.246 c 0.052,-0.041 0.139,-0.037 0.189,0.005 l 0.608,0.503"
         id="path77"
         inkscape:connector-curvature="0"
         style="fill:#fffffe" />
      <path
         d="m 799.105,170.053 c 0.031,0.06 0.015,0.142 -0.036,0.184 l -0.397,0.323 c -0.052,0.042 -0.069,0.124 -0.037,0.182 l 2.521,4.69 c 0.031,0.058 0.108,0.09 0.171,0.07 l 0.489,-0.153 c 0.064,-0.02 0.141,0.012 0.173,0.071 l 0.075,0.138 c 0.031,0.058 0.009,0.132 -0.049,0.163 l -2.111,1.135 c -0.059,0.031 -0.133,0.009 -0.164,-0.049 l -0.074,-0.139 c -0.033,-0.058 -0.015,-0.14 0.036,-0.182 l 0.397,-0.325 c 0.053,-0.042 0.068,-0.122 0.036,-0.182 l -2.52,-4.687 c -0.031,-0.06 -0.108,-0.092 -0.172,-0.071 l -0.488,0.151 c -0.063,0.02 -0.142,-0.011 -0.173,-0.07 l -0.075,-0.137 c -0.031,-0.06 -0.009,-0.134 0.049,-0.165 l 2.111,-1.135 c 0.058,-0.03 0.131,-0.008 0.164,0.051 l 0.074,0.137"
         id="path79"
         inkscape:connector-curvature="0"
         style="fill:#fffffe" />
      <path
         d="m 801.726,168.522 c 0.014,-0.04 0.077,-0.089 0.139,-0.111 l 4.927,-1.792 c 0.063,-0.023 0.14,-0.034 0.172,-0.022 0.031,0.011 0.077,0.07 0.102,0.131 l 0.425,1.055 c 0.025,0.061 -0.006,0.13 -0.069,0.153 l -0.396,0.145 c -0.062,0.022 -0.144,-0.004 -0.182,-0.06 l -0.346,-0.513 c -0.037,-0.056 -0.12,-0.086 -0.184,-0.066 l -0.515,0.153 c -0.064,0.018 -0.167,0.051 -0.23,0.075 l -0.5,0.181 1.849,5.092 c 0.024,0.061 0.095,0.104 0.161,0.094 l 0.506,-0.082 c 0.065,-0.009 0.137,0.033 0.16,0.095 l 0.054,0.148 c 0.023,0.063 -0.01,0.133 -0.072,0.154 l -2.251,0.819 c -0.064,0.024 -0.134,-0.01 -0.156,-0.072 l -0.053,-0.148 c -0.024,-0.062 0.004,-0.142 0.061,-0.175 l 0.44,-0.263 c 0.058,-0.034 0.086,-0.113 0.062,-0.176 l -1.852,-5.091 -0.5,0.184 c -0.063,0.023 -0.163,0.063 -0.225,0.091 l -0.493,0.213 c -0.06,0.027 -0.105,0.103 -0.099,0.17 l 0.066,0.615 c 0.007,0.066 -0.039,0.139 -0.102,0.162 l -0.397,0.144 c -0.062,0.022 -0.129,-0.011 -0.15,-0.075 l -0.339,-1.044 c -0.021,-0.063 -0.025,-0.146 -0.013,-0.184"
         id="path81"
         inkscape:connector-curvature="0"
         style="fill:#fffffe" />
      <path
         d="m 812.189,166.319 -0.504,2.801 1.856,-0.351 -1.352,-2.45 z m 1.601,2.896 -2.202,0.417 -0.339,2.016 c -0.011,0.065 0.035,0.12 0.101,0.122 l 0.455,0.008 c 0.068,0 0.132,0.055 0.144,0.122 l 0.029,0.154 c 0.013,0.064 -0.03,0.128 -0.096,0.141 l -1.926,0.363 c -0.065,0.012 -0.128,-0.031 -0.141,-0.097 l -0.029,-0.154 c -0.012,-0.065 0.028,-0.14 0.089,-0.166 l 0.394,-0.168 c 0.062,-0.024 0.122,-0.099 0.135,-0.164 l 1.215,-6.331 c 0.012,-0.066 0.076,-0.129 0.141,-0.141 l 0.844,-0.16 c 0.065,-0.011 0.146,0.025 0.178,0.084 l 3.133,5.504 c 0.033,0.059 0.115,0.108 0.181,0.109 l 0.418,0.014 c 0.067,0.002 0.132,0.057 0.144,0.121 l 0.029,0.156 c 0.011,0.065 -0.032,0.128 -0.097,0.14 l -2.205,0.417 c -0.065,0.011 -0.128,-0.031 -0.141,-0.095 l -0.029,-0.155 c -0.012,-0.067 0.028,-0.141 0.088,-0.167 l 0.395,-0.167 c 0.062,-0.026 0.085,-0.095 0.054,-0.153 l -0.962,-1.77"
         id="path83"
         inkscape:connector-curvature="0"
         style="fill:#fffffe" />
      <path
         d="m 819.885,170.573 c 0.145,0.056 0.307,0.101 0.484,0.135 0.177,0.034 0.33,0.05 0.456,0.049 0.449,0 0.799,-0.098 1.051,-0.293 0.252,-0.194 0.379,-0.471 0.377,-0.832 -0.001,-0.216 -0.05,-0.399 -0.144,-0.55 -0.096,-0.153 -0.219,-0.285 -0.368,-0.398 -0.15,-0.113 -0.315,-0.212 -0.5,-0.302 -0.183,-0.088 -0.365,-0.179 -0.541,-0.273 -0.266,-0.144 -0.508,-0.276 -0.723,-0.396 -0.216,-0.118 -0.399,-0.247 -0.547,-0.386 -0.15,-0.139 -0.264,-0.298 -0.345,-0.479 -0.079,-0.18 -0.12,-0.399 -0.121,-0.659 -0.001,-0.285 0.058,-0.536 0.177,-0.756 0.12,-0.218 0.288,-0.403 0.506,-0.553 0.217,-0.15 0.478,-0.264 0.785,-0.341 0.306,-0.077 0.646,-0.115 1.019,-0.118 0.139,0 0.29,0.009 0.451,0.026 0.162,0.019 0.323,0.042 0.484,0.07 0.163,0.028 0.319,0.061 0.471,0.097 0.152,0.037 0.285,0.083 0.285,0.083 0.063,0.022 0.118,0.057 0.123,0.077 0.005,0.021 0.004,0.092 -0.004,0.159 l -0.118,1.013 c -0.007,0.066 -0.068,0.121 -0.134,0.121 l -0.414,0.001 c -0.066,0.002 -0.134,-0.052 -0.149,-0.116 l -0.194,-0.785 c -0.089,-0.062 -0.21,-0.113 -0.362,-0.154 -0.151,-0.041 -0.335,-0.061 -0.549,-0.059 -0.387,0.001 -0.693,0.093 -0.92,0.274 -0.227,0.181 -0.34,0.43 -0.339,0.747 10e-4,0.203 0.04,0.37 0.117,0.504 0.076,0.131 0.177,0.244 0.305,0.34 0.127,0.094 0.269,0.177 0.428,0.249 0.159,0.073 0.32,0.149 0.486,0.232 0.221,0.118 0.455,0.239 0.703,0.362 0.247,0.122 0.471,0.263 0.67,0.423 0.2,0.161 0.365,0.346 0.491,0.555 0.127,0.208 0.185,0.459 0.174,0.749 -0.017,0.374 -0.097,0.683 -0.242,0.927 -0.145,0.245 -0.335,0.44 -0.571,0.587 -0.237,0.146 -0.518,0.248 -0.844,0.307 -0.325,0.058 -0.678,0.088 -1.057,0.089 -0.342,0.002 -0.677,-0.026 -1.006,-0.085 -0.33,-0.059 -0.738,-0.162 -0.738,-0.162 -0.064,-0.016 -0.119,-0.046 -0.121,-0.066 -0.004,-0.021 0.001,-0.092 0.007,-0.159 l 0.11,-1.014 c 0.007,-0.066 0.068,-0.12 0.135,-0.12 l 0.413,-0.003 c 0.066,0 0.134,0.053 0.15,0.117 l 0.193,0.766"
         id="path85"
         inkscape:connector-curvature="0"
         style="fill:#fffffe" />
      <path
         d="m 837.684,168.482 c -0.176,-0.555 -0.561,-0.93 -1.157,-1.124 -0.602,-0.195 -1.135,-0.124 -1.603,0.21 -0.467,0.334 -0.854,0.971 -1.158,1.911 -0.308,0.951 -0.376,1.705 -0.203,2.26 0.172,0.555 0.559,0.93 1.16,1.125 0.602,0.195 1.137,0.126 1.605,-0.209 0.467,-0.335 0.853,-0.972 1.157,-1.911 0.309,-0.951 0.375,-1.705 0.199,-2.262 z m -0.597,4.784 c -0.724,0.388 -1.58,0.421 -2.566,0.102 -0.476,-0.155 -0.878,-0.362 -1.206,-0.621 -0.328,-0.259 -0.578,-0.567 -0.748,-0.921 -0.172,-0.356 -0.26,-0.755 -0.265,-1.2 -0.006,-0.444 0.076,-0.929 0.246,-1.452 0.178,-0.548 0.407,-1.006 0.686,-1.376 0.279,-0.367 0.597,-0.646 0.954,-0.837 0.358,-0.191 0.751,-0.295 1.179,-0.313 0.427,-0.017 0.876,0.05 1.345,0.202 0.47,0.152 0.871,0.359 1.201,0.619 0.332,0.26 0.584,0.569 0.756,0.929 0.173,0.359 0.263,0.762 0.271,1.211 0.007,0.448 -0.075,0.937 -0.246,1.467 -0.347,1.073 -0.883,1.802 -1.607,2.19"
         id="path87"
         inkscape:connector-curvature="0"
         style="fill:#fffffe" />
      <path
         d="m 840.99,175.219 c 0.1,0.12 0.219,0.237 0.359,0.353 0.139,0.114 0.264,0.201 0.375,0.261 0.395,0.215 0.749,0.298 1.063,0.249 0.314,-0.049 0.559,-0.232 0.731,-0.55 0.103,-0.189 0.148,-0.372 0.138,-0.551 -0.011,-0.179 -0.055,-0.353 -0.131,-0.526 -0.076,-0.17 -0.174,-0.339 -0.293,-0.503 -0.119,-0.166 -0.233,-0.332 -0.344,-0.501 -0.164,-0.254 -0.312,-0.487 -0.443,-0.694 -0.132,-0.208 -0.23,-0.409 -0.294,-0.603 -0.064,-0.193 -0.087,-0.387 -0.071,-0.584 0.016,-0.197 0.088,-0.409 0.21,-0.637 0.137,-0.249 0.309,-0.443 0.52,-0.576 0.208,-0.136 0.445,-0.217 0.708,-0.243 0.264,-0.027 0.547,0 0.853,0.079 0.306,0.08 0.622,0.209 0.95,0.387 0.123,0.066 0.251,0.146 0.383,0.239 0.133,0.093 0.264,0.193 0.391,0.294 0.129,0.103 0.25,0.207 0.366,0.312 0.115,0.106 0.21,0.209 0.21,0.209 0.044,0.049 0.077,0.106 0.071,0.128 -0.005,0.02 -0.041,0.082 -0.079,0.137 l -0.592,0.831 c -0.039,0.055 -0.118,0.072 -0.176,0.042 l -0.362,-0.199 c -0.06,-0.03 -0.094,-0.109 -0.076,-0.174 l 0.208,-0.779 c -0.048,-0.098 -0.129,-0.202 -0.242,-0.311 -0.114,-0.108 -0.266,-0.213 -0.454,-0.316 -0.34,-0.184 -0.653,-0.251 -0.94,-0.201 -0.286,0.05 -0.504,0.214 -0.654,0.493 -0.097,0.177 -0.144,0.343 -0.141,0.495 0.004,0.154 0.038,0.302 0.104,0.446 0.066,0.143 0.151,0.284 0.255,0.426 0.105,0.138 0.21,0.283 0.314,0.435 0.137,0.21 0.285,0.43 0.442,0.655 0.159,0.226 0.287,0.459 0.384,0.695 0.098,0.237 0.153,0.478 0.166,0.722 0.01,0.244 -0.058,0.491 -0.209,0.741 -0.195,0.319 -0.414,0.55 -0.658,0.696 -0.244,0.143 -0.506,0.224 -0.784,0.239 -0.277,0.015 -0.573,-0.03 -0.887,-0.137 -0.312,-0.105 -0.637,-0.248 -0.97,-0.429 -0.301,-0.162 -0.58,-0.349 -0.84,-0.558 -0.262,-0.211 -0.57,-0.496 -0.57,-0.496 -0.049,-0.047 -0.083,-0.099 -0.074,-0.119 0.008,-0.019 0.044,-0.081 0.083,-0.134 l 0.584,-0.837 c 0.039,-0.054 0.118,-0.072 0.177,-0.041 l 0.361,0.197 c 0.06,0.032 0.094,0.111 0.076,0.174 l -0.198,0.764"
         id="path89"
         inkscape:connector-curvature="0"
         style="fill:#fffffe" />
      <path
         d="m 847.906,179.583 c -0.041,0.052 -0.032,0.128 0.021,0.17 l 0.818,0.641 c 0.051,0.041 0.14,0.106 0.194,0.142 l 0.435,0.3 c 0.055,0.038 0.142,0.035 0.194,-0.007 L 850.1,180.4 c 0.053,-0.042 0.138,-0.042 0.189,-0.001 l 0.333,0.261 c 0.052,0.04 0.061,0.116 0.017,0.166 l -0.707,0.84 c -0.043,0.05 -0.097,0.11 -0.12,0.131 -0.024,0.022 -0.087,0.006 -0.138,-0.035 l -3.544,-2.778 c -0.052,-0.041 -0.062,-0.117 -0.02,-0.169 l 0.096,-0.124 c 0.041,-0.053 0.124,-0.07 0.182,-0.04 l 0.456,0.234 c 0.059,0.03 0.141,0.012 0.182,-0.04 l 3.284,-4.189 c 0.041,-0.053 0.04,-0.137 -0.004,-0.187 l -0.337,-0.386 c -0.043,-0.051 -0.045,-0.135 -0.004,-0.187 l 0.097,-0.123 c 0.04,-0.051 0.118,-0.062 0.169,-0.021 l 1.878,1.473 c 0.052,0.041 0.062,0.117 0.021,0.17 l -0.097,0.123 c -0.041,0.053 -0.123,0.07 -0.182,0.04 l -0.455,-0.233 c -0.06,-0.032 -0.143,-0.013 -0.182,0.039 l -3.308,4.219"
         id="path91"
         inkscape:connector-curvature="0"
         style="fill:#fffffe" />
      <path
         d="m 858.718,183.229 c 0.133,-0.567 -0.008,-1.087 -0.423,-1.556 -0.418,-0.474 -0.914,-0.686 -1.486,-0.637 -0.573,0.05 -1.23,0.401 -1.97,1.054 -0.75,0.663 -1.192,1.276 -1.326,1.842 -0.135,0.565 0.006,1.084 0.425,1.56 0.419,0.474 0.914,0.686 1.487,0.636 0.572,-0.05 1.229,-0.4 1.969,-1.054 0.751,-0.661 1.192,-1.276 1.324,-1.845 z m -2.951,3.812 c -0.821,-0.036 -1.573,-0.442 -2.26,-1.221 -0.33,-0.376 -0.57,-0.757 -0.721,-1.148 -0.151,-0.39 -0.208,-0.781 -0.175,-1.173 0.035,-0.392 0.162,-0.781 0.384,-1.168 0.222,-0.385 0.539,-0.759 0.951,-1.122 0.433,-0.383 0.863,-0.661 1.29,-0.835 0.428,-0.176 0.845,-0.253 1.25,-0.235 0.404,0.018 0.795,0.129 1.173,0.332 0.377,0.203 0.729,0.489 1.055,0.859 0.327,0.37 0.565,0.752 0.718,1.144 0.153,0.393 0.211,0.788 0.178,1.185 -0.034,0.396 -0.163,0.79 -0.384,1.18 -0.222,0.39 -0.542,0.768 -0.96,1.138 -0.845,0.743 -1.678,1.099 -2.499,1.064"
         id="path93"
         inkscape:connector-curvature="0"
         style="fill:#fffffe" />
      <path
         d="m 861.44,191.218 c 0.049,-0.042 0.063,-0.125 0.029,-0.182 l -0.721,-1.226 -2.372,1.429 0.776,1.306 c 0.033,0.057 0.092,0.148 0.128,0.203 l 0.298,0.436 c 0.037,0.056 0.12,0.084 0.183,0.063 l 0.648,-0.214 c 0.063,-0.02 0.143,0.009 0.176,0.066 l 0.221,0.371 c 0.034,0.058 0.014,0.131 -0.044,0.163 l -0.963,0.527 c -0.059,0.033 -0.131,0.068 -0.16,0.08 -0.031,0.01 -0.082,-0.027 -0.116,-0.084 l -2.493,-4.197 c -0.034,-0.057 -0.015,-0.133 0.042,-0.165 l 0.134,-0.081 c 0.059,-0.035 0.141,-0.022 0.186,0.028 l 0.339,0.383 c 0.044,0.05 0.128,0.063 0.184,0.029 l 4.578,-2.718 c 0.057,-0.035 0.085,-0.114 0.063,-0.177 l -0.174,-0.481 c -0.022,-0.063 0.006,-0.141 0.063,-0.175 l 0.135,-0.08 c 0.057,-0.034 0.131,-0.015 0.165,0.041 l 2.377,4.002 c 0.034,0.057 0.06,0.132 0.056,0.169 -0.003,0.035 -0.052,0.094 -0.108,0.129 l -0.956,0.613 c -0.056,0.037 -0.13,0.019 -0.163,-0.039 l -0.216,-0.363 c -0.034,-0.056 -0.023,-0.14 0.025,-0.186 l 0.519,-0.489 c 0.049,-0.045 0.063,-0.131 0.032,-0.19 l -0.245,-0.48 c -0.03,-0.058 -0.084,-0.152 -0.118,-0.21 l -0.699,-1.184 -2.098,1.251 0.724,1.22 c 0.033,0.057 0.112,0.086 0.174,0.061 l 0.479,-0.179 c 0.062,-0.024 0.141,0.006 0.174,0.062 l 0.182,0.305 c 0.033,0.059 0.015,0.132 -0.042,0.167 l -1.548,0.919 c -0.057,0.034 -0.131,0.015 -0.166,-0.042 l -0.181,-0.306 c -0.034,-0.057 -0.021,-0.14 0.031,-0.182 l 0.462,-0.393"
         id="path95"
         inkscape:connector-curvature="0"
         style="fill:#fffffe" />
      <path
         d="m 783,188.381 c -0.062,-0.025 -0.141,-0.002 -0.177,0.054 l -0.782,1.188 2.331,1.498 0.829,-1.273 c 0.036,-0.056 0.092,-0.149 0.125,-0.207 l 0.261,-0.458 c 0.033,-0.058 0.021,-0.145 -0.026,-0.191 l -0.477,-0.488 c -0.047,-0.047 -0.055,-0.132 -0.019,-0.188 l 0.236,-0.362 c 0.036,-0.055 0.11,-0.07 0.165,-0.031 l 0.898,0.632 c 0.054,0.038 0.118,0.087 0.142,0.108 0.023,0.022 0.012,0.086 -0.024,0.141 l -2.666,4.09 c -0.036,0.055 -0.112,0.071 -0.167,0.035 l -0.132,-0.087 c -0.056,-0.036 -0.08,-0.115 -0.056,-0.177 l 0.194,-0.474 c 0.026,-0.062 0,-0.141 -0.056,-0.178 l -4.459,-2.907 c -0.056,-0.036 -0.139,-0.026 -0.185,0.021 l -0.355,0.368 c -0.047,0.048 -0.131,0.057 -0.186,0.021 l -0.132,-0.085 c -0.056,-0.038 -0.071,-0.112 -0.035,-0.168 l 2.541,-3.899 c 0.037,-0.056 0.094,-0.112 0.128,-0.124 0.032,-0.013 0.106,0.006 0.163,0.04 l 0.972,0.587 c 0.058,0.034 0.074,0.109 0.038,0.163 l -0.23,0.354 c -0.038,0.056 -0.118,0.082 -0.18,0.06 l -0.668,-0.249 c -0.061,-0.023 -0.144,0.001 -0.184,0.055 l -0.321,0.431 c -0.04,0.053 -0.102,0.142 -0.139,0.198 l -0.754,1.15 2.051,1.33 0.775,-1.188 c 0.036,-0.054 0.026,-0.138 -0.022,-0.183 l -0.373,-0.35 c -0.049,-0.046 -0.058,-0.129 -0.022,-0.184 l 0.194,-0.298 c 0.037,-0.056 0.112,-0.072 0.168,-0.035 l 1.508,0.982 c 0.056,0.037 0.072,0.113 0.035,0.167 l -0.194,0.299 c -0.037,0.056 -0.116,0.08 -0.177,0.053 L 783,188.381"
         id="path97"
         inkscape:connector-curvature="0"
         style="fill:#fffffe" />
      <path
         d="m 867.821,196.448 c 0.021,0.063 0.007,0.159 -0.033,0.212 l -3.397,4.707 3.953,-1.378 c 0.063,-0.022 0.107,-0.093 0.098,-0.158 l -0.074,-0.508 c -0.009,-0.067 0.034,-0.137 0.097,-0.159 l 0.149,-0.051 c 0.063,-0.022 0.133,0.012 0.154,0.076 l 0.671,1.94 c 0.022,0.063 -0.012,0.132 -0.075,0.155 l -0.148,0.05 c -0.063,0.021 -0.141,-0.007 -0.175,-0.065 l -0.259,-0.453 c -0.033,-0.056 -0.111,-0.087 -0.174,-0.064 l -5.597,1.935 c -0.063,0.022 -0.132,-0.013 -0.154,-0.075 l -0.19,-0.551 c -0.021,-0.064 -0.007,-0.158 0.032,-0.213 l 3.943,-5.388 -4.6,1.592 c -0.063,0.023 -0.106,0.093 -0.097,0.16 l 0.073,0.507 c 0.009,0.066 -0.034,0.137 -0.097,0.158 l -0.149,0.051 c -0.063,0.024 -0.133,-0.011 -0.154,-0.073 l -0.671,-1.942 c -0.022,-0.062 0.012,-0.133 0.075,-0.154 l 0.148,-0.051 c 0.063,-0.023 0.141,0.007 0.174,0.066 l 0.26,0.45 c 0.033,0.059 0.111,0.088 0.174,0.067 l 5.031,-1.741 c 0.063,-0.022 0.106,-0.092 0.097,-0.158 l -0.075,-0.515 c -0.01,-0.067 0.033,-0.139 0.096,-0.16 l 0.149,-0.053 c 0.062,-0.021 0.132,0.013 0.153,0.075 l 0.592,1.709"
         id="path99"
         inkscape:connector-curvature="0"
         style="fill:#fffffe" />
      <path
         d="m 864.328,206.629 c -0.035,0.151 -0.059,0.317 -0.068,0.498 -0.008,0.18 -0.005,0.333 0.014,0.458 0.064,0.444 0.209,0.777 0.436,1.001 0.227,0.223 0.52,0.308 0.877,0.257 0.214,-0.03 0.387,-0.103 0.525,-0.22 0.137,-0.115 0.251,-0.255 0.342,-0.417 0.091,-0.164 0.168,-0.342 0.23,-0.536 0.062,-0.194 0.127,-0.388 0.196,-0.576 0.105,-0.283 0.203,-0.541 0.292,-0.77 0.089,-0.23 0.192,-0.428 0.307,-0.596 0.118,-0.166 0.259,-0.302 0.427,-0.407 0.167,-0.102 0.38,-0.174 0.636,-0.211 0.282,-0.04 0.54,-0.016 0.773,0.072 0.234,0.087 0.44,0.229 0.618,0.423 0.178,0.195 0.326,0.439 0.445,0.732 0.12,0.293 0.206,0.624 0.258,0.993 0.02,0.139 0.033,0.288 0.037,0.45 0.004,0.163 0.004,0.326 -0.002,0.489 -0.005,0.164 -0.016,0.324 -0.031,0.478 -0.016,0.158 -0.043,0.294 -0.043,0.294 -0.013,0.067 -0.04,0.126 -0.06,0.135 -0.02,0.008 -0.09,0.016 -0.156,0.016 l -1.022,0.024 c -0.066,0.002 -0.128,-0.051 -0.137,-0.117 l -0.059,-0.408 c -0.009,-0.066 0.033,-0.141 0.095,-0.166 l 0.749,-0.3 c 0.05,-0.095 0.086,-0.221 0.104,-0.378 0.02,-0.156 0.013,-0.341 -0.017,-0.554 -0.055,-0.382 -0.188,-0.673 -0.398,-0.872 -0.212,-0.201 -0.474,-0.277 -0.788,-0.231 -0.2,0.028 -0.361,0.09 -0.481,0.183 -0.122,0.095 -0.22,0.211 -0.295,0.35 -0.076,0.138 -0.139,0.292 -0.19,0.459 -0.049,0.166 -0.102,0.337 -0.159,0.511 -0.089,0.236 -0.176,0.486 -0.263,0.747 -0.088,0.262 -0.196,0.502 -0.328,0.724 -0.131,0.219 -0.292,0.406 -0.48,0.561 -0.189,0.156 -0.428,0.248 -0.719,0.277 -0.372,0.035 -0.69,-0.002 -0.951,-0.112 -0.262,-0.11 -0.481,-0.272 -0.66,-0.484 -0.178,-0.215 -0.318,-0.479 -0.421,-0.794 -0.103,-0.313 -0.181,-0.659 -0.236,-1.034 -0.048,-0.339 -0.066,-0.675 -0.053,-1.009 0.012,-0.335 0.058,-0.752 0.058,-0.752 0.007,-0.066 0.029,-0.126 0.05,-0.131 0.02,-0.006 0.09,-0.011 0.158,-0.013 l 1.019,-0.032 c 0.066,-0.002 0.129,0.052 0.137,0.117 l 0.06,0.407 c 0.009,0.067 -0.034,0.143 -0.095,0.166 l -0.731,0.298"
         id="path101"
         inkscape:connector-curvature="0"
         style="fill:#fffffe" />
      <path
         d="m 870.718,215.598 c -0.066,0 -0.132,-0.053 -0.145,-0.118 l -0.099,-0.503 c -0.013,-0.064 -0.078,-0.118 -0.143,-0.118 l -5.324,0.023 c -0.067,0 -0.132,0.054 -0.144,0.119 l -0.094,0.503 c -0.012,0.066 -0.076,0.119 -0.144,0.119 l -0.156,0.002 c -0.067,0 -0.122,-0.054 -0.122,-0.122 l -0.01,-2.394 c -10e-4,-0.066 0.054,-0.122 0.12,-0.122 l 0.158,0 c 0.066,-0.002 0.13,0.052 0.143,0.117 l 0.099,0.502 c 0.013,0.066 0.079,0.119 0.145,0.118 l 5.323,-0.022 c 0.066,-0.001 0.132,-0.054 0.143,-0.119 l 0.094,-0.504 c 0.013,-0.066 0.078,-0.119 0.143,-0.119 l 0.158,-0.001 c 0.066,0 0.121,0.054 0.121,0.12 l 0.011,2.396 c 0,0.067 -0.054,0.122 -0.12,0.122 l -0.157,0.001"
         id="path103"
         inkscape:connector-curvature="0"
         style="fill:#fffffe" />
      <path
         d="m 864.626,219.652 c -0.078,0.134 -0.148,0.285 -0.211,0.456 -0.061,0.169 -0.101,0.316 -0.121,0.442 -0.07,0.444 -0.03,0.805 0.122,1.085 0.152,0.28 0.405,0.448 0.762,0.504 0.214,0.033 0.402,0.015 0.567,-0.056 0.165,-0.069 0.315,-0.169 0.45,-0.299 0.136,-0.128 0.262,-0.277 0.377,-0.445 0.116,-0.167 0.235,-0.331 0.356,-0.491 0.186,-0.241 0.354,-0.456 0.507,-0.651 0.151,-0.194 0.308,-0.353 0.469,-0.478 0.161,-0.127 0.336,-0.213 0.526,-0.264 0.191,-0.05 0.415,-0.054 0.67,-0.015 0.283,0.045 0.522,0.144 0.718,0.296 0.199,0.152 0.353,0.347 0.467,0.586 0.112,0.239 0.183,0.517 0.21,0.831 0.028,0.315 0.013,0.657 -0.045,1.024 -0.021,0.138 -0.055,0.285 -0.098,0.442 -0.044,0.157 -0.093,0.312 -0.145,0.468 -0.054,0.154 -0.111,0.302 -0.172,0.447 -0.062,0.144 -0.127,0.268 -0.127,0.268 -0.03,0.059 -0.075,0.109 -0.096,0.111 -0.021,10e-4 -0.091,-0.013 -0.155,-0.03 l -0.982,-0.278 c -0.065,-0.019 -0.108,-0.086 -0.098,-0.153 l 0.065,-0.408 c 0.01,-0.065 0.072,-0.123 0.14,-0.129 l 0.804,-0.066 c 0.075,-0.077 0.145,-0.188 0.21,-0.332 0.064,-0.143 0.112,-0.321 0.146,-0.535 0.059,-0.38 0.019,-0.696 -0.125,-0.95 -0.142,-0.253 -0.37,-0.405 -0.684,-0.453 -0.2,-0.031 -0.371,-0.021 -0.515,0.034 -0.142,0.055 -0.271,0.138 -0.384,0.247 -0.113,0.11 -0.218,0.238 -0.315,0.382 -0.096,0.145 -0.198,0.293 -0.306,0.443 -0.151,0.201 -0.309,0.413 -0.469,0.637 -0.16,0.225 -0.335,0.424 -0.526,0.595 -0.189,0.171 -0.397,0.304 -0.625,0.396 -0.225,0.094 -0.481,0.111 -0.767,0.053 -0.366,-0.077 -0.658,-0.206 -0.876,-0.387 -0.219,-0.183 -0.381,-0.401 -0.488,-0.658 -0.108,-0.257 -0.164,-0.55 -0.169,-0.881 -0.006,-0.331 0.019,-0.684 0.079,-1.059 0.052,-0.337 0.135,-0.664 0.245,-0.979 0.11,-0.315 0.277,-0.702 0.277,-0.702 0.025,-0.062 0.064,-0.111 0.086,-0.111 0.021,0.001 0.091,0.017 0.155,0.033 l 0.983,0.272 c 0.064,0.016 0.107,0.085 0.098,0.152 l -0.064,0.407 c -0.011,0.067 -0.074,0.124 -0.139,0.131 l -0.787,0.068"
         id="path105"
         inkscape:connector-curvature="0"
         style="fill:#fffffe" />
      <path
         d="m 792.788,253.932 c 0.059,0.028 0.139,0.006 0.176,-0.05 l 2.741,-3.937 -5.104,2.891 c -0.057,0.032 -0.147,0.025 -0.198,-0.017 l -0.204,-0.165 c -0.052,-0.043 -0.081,-0.131 -0.063,-0.194 l 1.476,-5.511 -3.099,3.374 c -0.047,0.048 -0.053,0.13 -0.014,0.183 l 0.311,0.422 c 0.039,0.054 0.035,0.137 -0.012,0.186 l -0.105,0.115 c -0.046,0.048 -0.123,0.051 -0.172,0.004 l -1.51,-1.406 c -0.048,-0.046 -0.051,-0.123 -0.006,-0.172 l 0.108,-0.113 c 0.044,-0.049 0.128,-0.059 0.184,-0.026 l 0.435,0.276 c 0.056,0.035 0.142,0.026 0.188,-0.021 l 3.504,-3.888 c 0.045,-0.05 0.045,-0.132 10e-4,-0.183 l -0.331,-0.394 c -0.042,-0.051 -0.043,-0.136 -0.001,-0.187 l 0.098,-0.121 c 0.042,-0.052 0.119,-0.061 0.17,-0.017 l 1.581,1.283 c 0.051,0.043 0.08,0.129 0.063,0.193 l -1.256,4.851 4.324,-2.355 c 0.058,-0.033 0.147,-0.025 0.199,0.017 l 1.514,1.23 c 0.052,0.042 0.06,0.119 0.017,0.171 l -0.098,0.121 c -0.042,0.052 -0.125,0.069 -0.182,0.036 l -0.454,-0.244 c -0.058,-0.031 -0.139,-0.012 -0.179,0.039 l -2.988,4.248 c -0.037,0.054 -0.03,0.138 0.014,0.189 l 0.352,0.377 c 0.045,0.049 0.05,0.132 0.01,0.185 l -0.092,0.126 c -0.039,0.054 -0.114,0.066 -0.168,0.027 l -1.942,-1.424 c -0.054,-0.038 -0.067,-0.115 -0.026,-0.169 l 0.091,-0.125 c 0.04,-0.055 0.121,-0.076 0.181,-0.047 l 0.466,0.222"
         id="path107"
         inkscape:connector-curvature="0"
         style="fill:#fffffe" />
      <path
         d="m 805.299,256.396 c 0.066,-0.368 0.057,-0.699 -0.025,-0.998 -0.083,-0.298 -0.24,-0.564 -0.47,-0.797 -0.23,-0.236 -0.8,-0.578 -0.8,-0.578 -0.058,-0.034 -0.152,-0.086 -0.212,-0.115 l -0.604,-0.313 -2.566,5.02 0.576,0.296 c 0.277,0.142 0.545,0.256 0.804,0.343 0.259,0.086 0.509,0.126 0.747,0.12 0.38,-0.032 0.753,-0.182 1.118,-0.448 0.364,-0.269 0.699,-0.701 1.005,-1.297 0.218,-0.454 0.361,-0.866 0.427,-1.233 z m -1.082,-2.804 c 0.469,0.24 0.879,0.51 1.229,0.81 0.351,0.298 0.614,0.634 0.792,1.005 0.177,0.372 0.255,0.785 0.234,1.238 -0.021,0.453 -0.171,0.952 -0.45,1.498 -0.262,0.512 -0.568,0.919 -0.919,1.223 -0.351,0.302 -0.733,0.504 -1.145,0.605 -0.412,0.102 -0.851,0.111 -1.317,0.031 -0.463,-0.083 -1.323,-0.453 -1.323,-0.453 -0.062,-0.027 -0.16,-0.073 -0.22,-0.103 l -2.304,-1.179 c -0.059,-0.029 -0.083,-0.104 -0.052,-0.162 l 0.071,-0.139 c 0.029,-0.058 0.106,-0.093 0.17,-0.073 l 0.495,0.143 c 0.064,0.02 0.141,-0.014 0.171,-0.073 l 2.417,-4.728 c 0.03,-0.059 0.012,-0.14 -0.04,-0.183 l -0.407,-0.315 c -0.051,-0.041 -0.07,-0.124 -0.04,-0.181 l 0.071,-0.141 c 0.031,-0.059 0.104,-0.083 0.163,-0.052 l 2.404,1.229"
         id="path109"
         inkscape:connector-curvature="0"
         style="fill:#fffffe" />
      <path
         d="m 843.767,254.801 -2.93,-1.329 c -0.061,-0.028 -0.163,-0.035 -0.227,-0.015 l -0.44,0.137 c -0.063,0.019 -0.142,-0.012 -0.175,-0.068 l -0.077,-0.138 c -0.032,-0.057 -0.013,-0.131 0.046,-0.164 l 2.108,-1.2 c 0.057,-0.034 0.132,-0.013 0.166,0.044 l 0.077,0.137 c 0.032,0.057 0.018,0.141 -0.03,0.185 l -0.261,0.241 c -0.05,0.044 -0.041,0.105 0.02,0.133 l 2.088,0.994 0.257,-2.331 c 0.007,-0.068 -0.039,-0.105 -0.102,-0.085 l -0.365,0.114 c -0.064,0.021 -0.143,-0.01 -0.175,-0.067 l -0.077,-0.137 c -0.033,-0.057 -0.013,-0.132 0.044,-0.164 l 1.67,-0.952 c 0.058,-0.032 0.132,-0.011 0.165,0.045 l 0.078,0.137 c 0.033,0.056 0.019,0.14 -0.031,0.185 l -0.381,0.335 c -0.05,0.044 -0.098,0.133 -0.104,0.199 l -0.324,2.965 3.247,1.512 c 0.06,0.027 0.161,0.034 0.225,0.014 l 0.449,-0.142 c 0.063,-0.018 0.142,0.012 0.175,0.07 l 0.077,0.136 c 0.032,0.057 0.013,0.132 -0.045,0.166 l -2.117,1.205 c -0.058,0.032 -0.132,0.013 -0.165,-0.045 l -0.077,-0.136 c -0.033,-0.058 -0.02,-0.141 0.03,-0.185 l 0.284,-0.257 c 0.049,-0.043 0.041,-0.104 -0.018,-0.132 l -2.439,-1.168 -0.296,2.726 c -0.008,0.067 0.038,0.104 0.101,0.087 l 0.348,-0.108 c 0.064,-0.019 0.143,0.012 0.176,0.069 l 0.078,0.137 c 0.032,0.057 0.012,0.131 -0.045,0.164 l -1.678,0.956 c -0.059,0.033 -0.132,0.012 -0.166,-0.044 l -0.076,-0.136 c -0.034,-0.058 -0.02,-0.142 0.03,-0.186 l 0.381,-0.335 c 0.05,-0.043 0.098,-0.133 0.105,-0.2 l 0.396,-3.369"
         id="path111"
         inkscape:connector-curvature="0"
         style="fill:#fffffe" />
      <path
         d="m 851.029,245.891 c 0.043,0.05 0.047,0.134 0.006,0.186 l -0.316,0.407 c -0.04,0.052 -0.038,0.138 0.007,0.187 l 3.512,3.981 c 0.043,0.05 0.126,0.063 0.183,0.029 l 0.444,-0.261 c 0.057,-0.034 0.14,-0.021 0.183,0.029 l 0.104,0.117 c 0.044,0.049 0.038,0.126 -0.011,0.17 l -1.805,1.592 c -0.051,0.045 -0.126,0.04 -0.171,-0.01 l -0.104,-0.117 c -0.043,-0.049 -0.045,-0.133 -0.005,-0.186 l 0.316,-0.407 c 0.04,-0.052 0.037,-0.136 -0.007,-0.187 l -3.511,-3.981 c -0.045,-0.05 -0.127,-0.064 -0.185,-0.03 l -0.443,0.262 c -0.057,0.034 -0.14,0.021 -0.185,-0.029 l -0.103,-0.117 c -0.044,-0.05 -0.039,-0.126 0.011,-0.17 l 1.806,-1.593 c 0.05,-0.045 0.127,-0.039 0.17,0.01 l 0.104,0.118"
         id="path113"
         inkscape:connector-curvature="0"
         style="fill:#fffffe" />
      <path
         d="m 787.046,182.823 c -0.047,0.049 -0.081,0.079 -0.081,0.079 l -1.916,-1.814 0.343,-0.356 c 0.046,-0.049 0.123,-0.126 0.17,-0.171 0,0 0.209,-0.204 0.356,-0.314 0.147,-0.108 0.298,-0.179 0.451,-0.211 0.154,-0.033 0.312,-0.023 0.475,0.031 0.162,0.055 0.33,0.166 0.504,0.33 0.381,0.363 0.562,0.716 0.541,1.059 -0.02,0.342 -0.457,0.939 -0.457,0.939 -0.039,0.053 -0.108,0.136 -0.154,0.184 l -0.232,0.244 z m 4.097,0.675 c 0.064,0.01 0.156,-0.018 0.202,-0.067 l 1.004,-1.054 c 0.045,-0.049 0.044,-0.126 -0.005,-0.172 l -0.113,-0.108 c -0.049,-0.047 -0.132,-0.053 -0.187,-0.014 l -0.383,0.265 c -0.053,0.038 -0.153,0.061 -0.218,0.05 l -2.998,-0.488 c -0.065,-0.01 -0.095,-0.068 -0.067,-0.128 0,0 0.366,-0.792 0.351,-1.203 -0.014,-0.412 -0.198,-0.785 -0.551,-1.121 -0.253,-0.24 -0.506,-0.38 -0.763,-0.419 -0.256,-0.038 -0.506,-0.012 -0.75,0.08 -0.243,0.09 -0.478,0.227 -0.705,0.409 -0.226,0.182 -0.546,0.498 -0.546,0.498 -0.048,0.047 -0.125,0.124 -0.17,0.172 l -1.763,1.852 c -0.045,0.049 -0.044,0.126 0.004,0.172 l 0.114,0.108 c 0.048,0.046 0.132,0.052 0.186,0.013 l 0.423,-0.303 c 0.054,-0.04 0.138,-0.034 0.186,0.011 l 3.857,3.671 c 0.047,0.046 0.057,0.129 0.022,0.185 l -0.283,0.437 c -0.037,0.056 -0.027,0.139 0.021,0.186 l 0.115,0.109 c 0.048,0.045 0.125,0.043 0.17,-0.005 l 1.652,-1.736 c 0.045,-0.048 0.044,-0.125 -0.004,-0.171 l -0.114,-0.109 c -0.048,-0.045 -0.131,-0.05 -0.186,-0.012 l -0.416,0.298 c -0.054,0.037 -0.138,0.033 -0.186,-0.014 l -1.777,-1.69 0.263,-0.278 c 0.047,-0.048 0.137,-0.077 0.203,-0.064 l 3.412,0.64"
         id="path115"
         inkscape:connector-curvature="0"
         style="fill:#fffffe" />
    </g>
    <path
       style="fill:none;fill-rule:evenodd;stroke:#000000;stroke-width:2.6;stroke-linecap:butt;stroke-linejoin:miter;stroke-opacity:1;marker-end:url(#Arrow1Lend);stroke-miterlimit:4;stroke-dasharray:none"
       d="m 688.46525,-180.65336 233.25825,-1.41369"
       id="path3457"
       inkscape:connector-curvature="0" />
    <text
       xml:space="preserve"
       style="font-style:normal;font-weight:normal;line-height:0%;font-family:sans-serif;letter-spacing:0px;word-spacing:0px;fill:#000000;fill-opacity:1;stroke:none;stroke-width:1px;stroke-linecap:butt;stroke-linejoin:miter;stroke-opacity:1"
       x="312.42468"
       y="-199.03127"
       id="text4641"><tspan
         sodipodi:role="line"
         id="tspan4643"
         x="312.42468"
         y="-199.03127"
         style="font-size:40px;line-height:1.25">Hvis man skulle</tspan><tspan
         sodipodi:role="line"
         x="312.42468"
         y="-149.03127"
         id="tspan4645"
         style="font-size:40px;line-height:1.25">f lyst p et segl</tspan></text>
    <text
       xml:space="preserve"
       style="font-style:normal;font-weight:normal;font-size:40px;line-height:1.25;font-family:sans-serif;letter-spacing:0px;word-spacing:0px;fill:#000000;fill-opacity:1;stroke:none"
       x="472.17123"
       y="-81.695312"
       id="text93"><tspan
         sodipodi:role="line"
         id="tspan91"
         x="472.17123"
         y="-46.304688"></tspan></text>
    <flowRoot
       xml:space="preserve"
       id="flowRoot95"
       style="fill:black;fill-opacity:1;stroke:none;font-family:sans-serif;font-style:normal;font-weight:normal;font-size:40px;line-height:1.25;letter-spacing:0px;word-spacing:0px"><flowRegion
         id="flowRegion97"><rect
           id="rect99"
           width="202.15715"
           height="86.234863"
           x="431.17435"
           y="-105.72798" /></flowRegion><flowPara
         id="flowPara101"></flowPara></flowRoot>  </g>
</svg>
